<svg width="130" height="130" viewBox="0 0 130 130" fill="none" xmlns="http://www.w3.org/2000/svg">
    <circle cx="65" cy="65" r="63.5" fill="#4DA2FE" stroke="url(#nk9ul53ola)" stroke-width="3"/>
    <g clip-path="url(#ilnrw56cyb)" fill="#fff">
        <path d="M68.401 76.722c.888.267 1.773.839 2.414.63.556-.18.809-1.265 1.241-1.916 1.73-2.613 4.167-4.152 7.387-4.832-2.002-1.014-3.451-2.404-4.237-4.393-.772-1.96-.8-3.951-.023-5.92 1.303-3.292 4.427-5.168 8.12-4.902 3.023.217 5.905 2.71 6.65 5.849.753 3.18-.137 6.92-4.469 9.34.646.194 1.194.322 1.72.52 4.643 1.738 7.585 5.893 7.762 10.992.052 1.498.018 2.998.034 4.495.007.606-.016 1.25-.778 1.273-.78.023-.795-.625-.81-1.229-.05-1.847.128-3.7-.17-5.543-.806-4.954-4.15-8.378-9.053-9.238-4.65-.815-9.17 1.393-11.446 5.543-.378.693-.358 1.043.31 1.579 2.573 2.059 4.038 4.75 4.249 8.127.09 1.409.16 2.815.151 4.226-.002.57-.087 1.098-.805 1.106-.703.007-.852-.536-.878-1.082-.049-1.056-.033-2.115-.06-3.173-.123-5.172-3.098-8.935-8.017-10.15-5.99-1.48-11.752 2.169-13 8.253-.258 1.257-.157 2.545-.142 3.823.005.397.013.794.018 1.189.008.567-.07 1.1-.777 1.137-.796.042-.899-.554-.922-1.155-.036-.97-.062-1.94-.051-2.909.038-3.781 1.446-6.93 4.303-9.369.5-.426.726-.695.36-1.39-2.177-4.16-6.542-6.392-11.481-5.8-4.247.513-7.99 3.903-9.043 8.21-.422 1.73-.344 3.499-.324 5.26.008.617.003 1.234 0 1.85-.002.445-.144.774-.651.81-.45.032-.87-.156-.88-.59-.06-2.943-.386-5.925.545-8.786.808-2.486 2.286-4.53 4.425-6.045 1.33-.943 2.777-1.602 4.671-1.887-3.163-1.706-4.88-4.113-4.805-7.641.049-2.3.95-4.187 2.615-5.684 3.42-3.074 8.484-2.551 11.271 1.126 3.084 4.072 1.967 8.893-2.926 12.157 2.005.528 3.778 1.338 5.263 2.692 1.107 1.009 2.072 2.146 2.71 3.515.291.627.595.734 1.187.434.458-.233.976-.345 1.606-.56-2.633-1.612-4.203-3.844-4.206-6.993 0-2.27.827-4.205 2.443-5.773 3.158-3.065 8.224-2.673 11.073.847 3.001 3.708 1.99 8.622-2.571 11.972l-.003.005zM53.817 63.485c.026-3.637-2.65-6.496-6.095-6.507-3.366-.01-6.146 2.765-6.17 6.16-.025 3.528 2.67 6.314 6.124 6.327 3.418.013 6.116-2.614 6.141-5.977v-.003zm34.676-.167c.041-3.45-2.564-6.282-5.825-6.34-3.477-.06-6.432 2.796-6.44 6.22-.005 3.363 2.79 6.238 6.11 6.283 3.37.044 6.111-2.703 6.152-6.163h.003zM71.01 69.63c-.01-3.384-2.625-6.076-5.884-6.06a6.06 6.06 0 0 0-6.049 6.1c.01 3.33 2.803 6.133 6.075 6.102 3.222-.031 5.868-2.807 5.858-6.139v-.003z"/>
        <path d="M65.127 40.475c1.681-1.67 3.64-2.376 5.874-1.903 4.296.91 6.278 5.985 3.868 9.785-.447.705-.998 1.325-1.585 1.918-2.152 2.174-4.283 4.37-6.437 6.541-1.159 1.168-2.124 1.194-3.267.068a608.905 608.905 0 0 1-7.317-7.325c-1.956-2-2.502-4.367-1.5-7.022 1.5-3.97 6.23-5.316 9.561-2.744.24.185.461.394.8.687l.003-.005zm9.068 4.714c.07-2.276-.975-3.977-2.695-4.712-1.886-.804-3.825-.316-5.29 1.333-1.1 1.242-1.18 1.223-2.233.013-1.215-1.398-2.741-1.955-4.556-1.515-1.714.415-2.767 1.554-3.29 3.224-.65 2.078.212 3.717 1.589 5.118 2.265 2.307 4.61 4.534 6.885 6.83.484.49.767.513 1.248.011 2.273-2.362 4.595-4.678 6.865-7.04.937-.975 1.456-2.172 1.472-3.262h.005z"/>
    </g>
    <defs>
        <linearGradient id="nk9ul53ola" x1="0" y1="0" x2="130" y2="130" gradientUnits="userSpaceOnUse">
            <stop stop-color="#fff" stop-opacity=".75"/>
            <stop offset="1" stop-color="#fff" stop-opacity=".1"/>
        </linearGradient>
        <clipPath id="ilnrw56cyb">
            <path fill="#fff" transform="translate(35 35)" d="M0 0h60v60H0z"/>
        </clipPath>
    </defs>
</svg>
