<svg width="130" height="130" viewBox="0 0 130 130" fill="none" xmlns="http://www.w3.org/2000/svg">
    <circle cx="65" cy="65" r="63.5" fill="#4DA2FE" stroke="url(#i8utmrrxla)" stroke-width="3"/>
    <path d="M88.686 64.167c-1.682-3.144-3.296-6.122-4.862-9.123-.345-.66-.868-.58-1.417-.58h-7.65c-.254 0-.51-.005-.764 0-.484.005-.97-.04-1.016-.65-.054-.688.505-.668.949-.68 1.07-.03 2.142-.017 3.212-.02 2.04-.005 4.08.005 6.12-.022.796-.01 1.303.253 1.69 1a697.217 697.217 0 0 0 5.434 10.2c.28.52.333 1.046.333 1.608-.003 9.089.002 18.178 0 27.264 0 1.61-.23 1.829-1.894 1.829-15.859.005-31.72.005-47.58 0-1.521 0-1.925-.37-1.928-1.868-.02-9.084-.012-18.173-.027-27.262 0-.53.14-.99.385-1.443 1.8-3.35 3.616-6.691 5.37-10.064.455-.876 1.02-1.276 2.023-1.264 3.111.04 6.223.012 9.331.02.54 0 1.255-.135 1.213.726-.034.715-.67.626-1.17.626-2.907.003-5.814.008-8.72-.005-.632-.002-1.137.008-1.502.712-1.548 3.007-3.168 5.977-4.78 8.993 1.486.165 45.435.18 47.252.003h-.002zm-23.85 29.446v-.007c7.702 0 15.406-.017 23.108.02 1.07.004 1.504-.184 1.494-1.4-.06-8.38-.05-16.759-.013-25.138.005-1.031-.227-1.385-1.333-1.382-15.354.034-30.708.03-46.06.002-.954 0-1.299.199-1.291 1.245.051 8.48.051 16.963.02 25.443-.006.999.246 1.252 1.276 1.244 7.6-.054 15.201-.03 22.8-.03v.003z" fill="#fff"/>
    <path d="M65.048 38.026c2.675-3.198 6.528-3.917 9.62-1.89 3.022 1.984 4.082 6.355 2.37 9.764a8.627 8.627 0 0 1-1.586 2.227c-2.91 2.92-5.82 5.841-8.764 8.725-1.184 1.161-1.93 1.154-3.141-.039-3.084-3.034-6.213-6.03-9.166-9.187-3.925-4.197-2.32-10.712 2.956-12.142 2.985-.81 5.66-.177 7.714 2.54l-.003.002zm-.079 18.502c3.35-3.345 6.492-6.394 9.526-9.545 2.406-2.499 2.532-6.22.451-8.583-2.393-2.718-6.34-2.536-8.586.392-1.183 1.544-1.336 1.537-2.485.022-1.277-1.681-3.023-2.405-5.086-2.17-2.318.266-3.972 1.532-4.77 3.739-.92 2.535-.074 4.725 1.664 6.568 3.03 3.218 6.15 6.35 9.286 9.575v.002zM64.846 60.365h-11.15c-.355 0-.713 0-1.065-.037-.414-.047-.644-.31-.604-.724.04-.422.323-.594.74-.58.305.013.61 0 .916 0 7.535 0 15.07-.005 22.605-.007.153 0 .306-.007.458 0 .484.032 1.112-.13 1.117.655.003.766-.611.69-1.102.69-3.971.01-7.943.005-11.912.005v-.005l-.003.003zM65.09 72.5c1.861-2.236 4.277-2.644 6.839-2.025 3.653.883 5.478 4.693 4.213 8.453-.513 1.522-1.398 2.815-2.517 3.947a870.744 870.744 0 0 1-6.915 6.904c-1.336 1.318-1.807 1.309-3.158-.024a1537.1 1537.1 0 0 1-7.253-7.214c-1.474-1.475-2.493-3.188-2.707-5.312-.281-2.773.779-4.911 3.24-6.187 2.445-1.267 4.908-1.154 7.186.535.323.24.614.525 1.07.923h.002zm-.145 16.344c2.729-2.548 5.537-5.13 8.283-7.773.532-.513.895-1.235 1.225-1.912 1.248-2.556.612-5.145-1.55-6.598-1.724-1.159-5.14-1.262-6.9 1.055-.854 1.125-1.142 1.058-2.106-.039-1.73-1.97-4.366-2.393-6.617-1.06-2.13 1.261-2.85 3.571-1.893 6.085.308.814.71 1.595 1.324 2.201 2.817 2.786 5.667 5.54 8.234 8.041z" fill="#fff"/>
    <defs>
        <linearGradient id="i8utmrrxla" x1="0" y1="0" x2="130" y2="130" gradientUnits="userSpaceOnUse">
            <stop stop-color="#fff" stop-opacity=".75"/>
            <stop offset="1" stop-color="#fff" stop-opacity=".1"/>
        </linearGradient>
    </defs>
</svg>
