<svg width="130" height="130" viewBox="0 0 130 130" fill="none" xmlns="http://www.w3.org/2000/svg">
    <mask id="pik0r0jo1b" style="mask-type:alpha" maskUnits="userSpaceOnUse" x="0" y="0" width="130" height="130">
        <g clip-path="url(#51orzshqma)" fill="#000">
            <path d="M129.992 33.304a.6.6 0 0 0-.013-.083 1.144 1.144 0 0 0-.018-.099l-.015-.068c-.008-.026-.019-.051-.029-.077-.013-.032-.023-.063-.039-.094a.495.495 0 0 0-.034-.067c-.005-.01-.007-.021-.013-.029-.007-.016-.018-.026-.028-.039-.016-.026-.034-.052-.052-.078-.016-.023-.034-.044-.052-.067a3.07 3.07 0 0 0-.055-.063c-.018-.02-.039-.039-.059-.06l-.063-.054c-.021-.018-.044-.034-.067-.052-.026-.018-.052-.034-.078-.05-.013-.007-.026-.02-.039-.028l-10.537-5.958a1.302 1.302 0 0 0-1.278 0l-10.537 5.958c-.015.008-.026.02-.039.029-.026.015-.051.033-.077.052a.486.486 0 0 0-.065.049c-.021.018-.042.036-.063.057-.021.02-.041.04-.059.06l-.055.062c-.018.021-.034.044-.052.068l-.052.078c-.008.013-.021.026-.028.039-.006.01-.008.02-.013.028a.7.7 0 0 0-.034.068l-.039.093a.82.82 0 0 0-.029.078c-.008.02-.01.044-.015.068-.008.03-.013.065-.019.098-.005.029-.01.055-.012.083 0 .026 0 .052-.003.076 0 .015-.005.03-.005.047v9.965l-.657.301a1.297 1.297 0 1 0 1.077 2.361l.816-.371 9.96 5.633c.034.02.073.036.107.052.013.005.023.013.036.018a1.178 1.178 0 0 0 .265.075c.075.013.153.024.231.024.078 0 .156-.01.231-.024.018-.002.037-.007.055-.01a1.204 1.204 0 0 0 .353-.135l10.537-5.958c.015-.008.026-.018.039-.029.039-.023.075-.052.111-.078.034-.025.065-.049.094-.077.031-.029.057-.06.086-.091a.965.965 0 0 0 .145-.203c.021-.036.042-.073.06-.109.018-.039.031-.078.044-.117.013-.039.026-.078.036-.12a.77.77 0 0 0 .021-.119.801.801 0 0 0 .013-.137c0-.016.005-.032.005-.047V33.43c0-.015-.005-.031-.005-.047 0-.026 0-.052-.002-.075l.007-.005zm-21.063 2.35 7.94 4.49v7.818l-7.94-4.49v-7.818zm10.537 4.49 7.94-4.49v7.818l-7.94 4.49v-7.817zm-1.299-11.183 7.898 4.468-7.898 4.467-7.898-4.468 7.898-4.467zM23.668 86.606l.657-.301a1.297 1.297 0 1 0-1.078-2.361l-.815.371-9.96-5.633a1.302 1.302 0 0 0-1.278 0L.657 84.64c-.016.008-.026.02-.04.029a1.35 1.35 0 0 0-.077.052c-.023.015-.044.033-.065.049l-.062.054a.66.66 0 0 0-.06.06l-.055.063c-.018.02-.033.044-.052.067-.018.026-.033.052-.052.078-.007.013-.02.026-.028.039-.005.01-.008.02-.013.028a.802.802 0 0 0-.034.068l-.039.093a.928.928 0 0 0-.028.078c-.008.021-.01.044-.016.068a1.11 1.11 0 0 0-.018.099c-.005.028-.01.054-.013.083 0 .026 0 .052-.003.075 0 .016-.005.031-.005.047v10.802c0 .015.005.03.005.046 0 .047.008.091.013.138a.883.883 0 0 0 .057.239c.013.039.029.08.045.117.018.039.038.073.06.109.02.036.04.07.064.104.026.034.052.067.08.098.03.032.055.063.086.091.029.029.063.052.094.078.036.029.073.055.112.078.013.008.026.02.039.029l10.536 5.958c.034.02.073.036.107.052.013.005.023.013.036.018a1.249 1.249 0 0 0 .265.075c.075.013.153.023.231.023.078 0 .156-.01.231-.023.019-.002.037-.008.055-.01.07-.016.143-.037.21-.065.013-.005.024-.011.037-.018a.99.99 0 0 0 .106-.052l10.537-5.958c.016-.008.026-.021.039-.029.039-.023.075-.052.112-.078.033-.026.065-.05.093-.078.031-.028.057-.06.086-.09a.967.967 0 0 0 .145-.203c.021-.037.042-.073.06-.11.018-.038.031-.077.044-.116.013-.04.026-.078.037-.12a.882.882 0 0 0 .02-.12.821.821 0 0 0 .013-.137c0-.015.005-.03.005-.046v-9.966h.01zM2.597 87.998l7.94 4.49v7.818l-7.94-4.49v-7.818zm10.537 4.49 7.94-4.49v7.818l-7.94 4.49v-7.817zm-1.299-11.183 7.898 4.467-7.898 4.468-7.898-4.468 7.898-4.467zM129.993 85.645c-.003-.028-.008-.054-.013-.083a1.69 1.69 0 0 0-.034-.166.83.83 0 0 0-.029-.078c-.013-.031-.023-.063-.039-.094a.71.71 0 0 0-.033-.067c-.006-.01-.008-.021-.013-.029-.008-.015-.019-.026-.029-.039-.015-.026-.034-.052-.052-.078-.015-.023-.034-.044-.052-.067l-.054-.063a.719.719 0 0 0-.06-.06c-.021-.017-.042-.038-.062-.054-.021-.018-.045-.033-.065-.052l-.078-.052c-.013-.007-.026-.02-.039-.028l-10.537-5.958a1.302 1.302 0 0 0-1.278 0l-9.96 5.633-.816-.371a1.296 1.296 0 0 0-1.719.641 1.296 1.296 0 0 0 .642 1.72l.657.3v9.966c0 .016.005.031.005.047 0 .047.008.09.013.138.005.041.01.08.021.12a1.866 1.866 0 0 0 .08.236c.018.038.039.072.06.109.021.036.041.07.065.104.026.033.052.067.08.098.029.031.055.063.086.091.029.029.062.052.094.078.036.028.072.054.111.078.013.008.026.02.039.028l10.537 5.958c.034.021.073.037.106.052l.037.019c.067.028.137.049.21.064.018.006.037.008.055.011.075.013.153.023.231.023.078 0 .156-.01.231-.023l.055-.011c.07-.015.142-.036.21-.064a.313.313 0 0 0 .036-.019.705.705 0 0 0 .107-.052l10.537-5.957c.015-.008.026-.021.039-.03.039-.023.075-.051.111-.077.034-.026.065-.05.094-.078.031-.028.057-.06.085-.09a.874.874 0 0 0 .146-.203c.021-.037.041-.073.06-.11a1.432 1.432 0 0 0 .08-.236.775.775 0 0 0 .021-.12.802.802 0 0 0 .013-.137c0-.016.005-.031.005-.047V85.764c0-.015-.005-.03-.005-.046 0-.026 0-.052-.003-.076l.011.003zm-21.064 2.35 7.94 4.491v7.818l-7.94-4.49v-7.818zm10.537 4.491 7.94-4.49v7.817l-7.94 4.491v-7.818zm-1.298-11.183 7.898 4.467-7.898 4.467-7.898-4.467 7.898-4.467zM29.834 80.936l-3.293 1.504a1.297 1.297 0 1 0 1.078 2.36l3.293-1.503a1.297 1.297 0 1 0-1.078-2.36zM36.42 77.929l-3.292 1.504a1.297 1.297 0 1 0 1.078 2.36l3.293-1.503a1.297 1.297 0 1 0-1.078-2.361zM30.912 46.703l-3.293-1.504a1.296 1.296 0 0 0-1.72.642 1.296 1.296 0 0 0 .642 1.719l3.293 1.504a1.3 1.3 0 0 0 1.72-.642 1.296 1.296 0 0 0-.642-1.72zM37.499 49.71l-3.294-1.503a1.296 1.296 0 0 0-1.719.641 1.296 1.296 0 0 0 .642 1.72l3.293 1.503a1.3 1.3 0 0 0 1.72-.642 1.296 1.296 0 0 0-.642-1.719zM24.328 43.695l-.657-.301v-9.965c0-.016-.005-.032-.005-.047 0-.026 0-.052-.003-.076-.003-.028-.008-.054-.013-.083a1.314 1.314 0 0 0-.018-.098l-.016-.068a.928.928 0 0 0-.028-.078c-.013-.031-.024-.062-.04-.093a.546.546 0 0 0-.033-.068c-.005-.01-.008-.02-.013-.028-.008-.016-.018-.026-.029-.04-.015-.025-.033-.051-.051-.077-.016-.024-.034-.044-.052-.068l-.055-.062a.66.66 0 0 0-.06-.06l-.062-.054c-.02-.019-.044-.034-.068-.052-.026-.019-.052-.034-.078-.05l-.038-.028-10.537-5.958a1.302 1.302 0 0 0-1.278 0L.66 32.299c-.016.008-.026.02-.04.028a1.35 1.35 0 0 0-.077.052c-.024.016-.044.034-.065.05l-.062.054a.66.66 0 0 0-.06.06l-.055.062c-.018.02-.033.044-.052.068-.018.026-.033.052-.052.078-.007.013-.02.026-.028.039-.005.01-.008.02-.013.028a.82.82 0 0 0-.034.068l-.039.093a.928.928 0 0 0-.028.078c-.008.02-.01.044-.016.068a1.11 1.11 0 0 0-.018.098c-.005.029-.01.055-.013.083 0 .026 0 .052-.003.076 0 .015-.005.03-.005.047V44.23c0 .016.005.031.005.047 0 .047.008.09.013.138.005.041.01.08.021.12a1.553 1.553 0 0 0 .08.236c.019.038.04.072.06.108.021.037.042.07.065.104.026.034.052.068.08.1.03.03.055.061.086.09.029.029.063.052.094.078.036.029.073.055.112.078.013.008.026.02.038.028l10.537 5.958c.034.021.073.037.107.052l.036.019a1.16 1.16 0 0 0 .265.075c.075.013.153.023.231.023.078 0 .156-.01.231-.023.019-.003.037-.008.055-.01a1.228 1.228 0 0 0 .247-.084c.036-.015.072-.03.106-.052l9.96-5.633.816.371a1.296 1.296 0 0 0 1.72-.642 1.296 1.296 0 0 0-.642-1.718l.005.002zm-21.73-8.04 7.939 4.49v7.817l-7.94-4.49v-7.818zm10.536 4.49 7.94-4.49v7.817l-7.94 4.49v-7.817zM11.835 28.96l7.898 4.468-7.898 4.467-7.898-4.468 7.898-4.467zM97.514 48.848a1.297 1.297 0 0 0-1.72-.641l-3.292 1.503a1.297 1.297 0 1 0 1.078 2.361l3.293-1.504c.652-.298.94-1.067.641-1.719zM104.101 45.84a1.298 1.298 0 0 0-1.719-.641l-3.293 1.504a1.297 1.297 0 1 0 1.077 2.36l3.294-1.503c.652-.299.94-1.068.641-1.72zM96.873 79.433l-3.294-1.504a1.296 1.296 0 0 0-1.719.641 1.296 1.296 0 0 0 .642 1.72l3.293 1.503a1.3 1.3 0 0 0 1.72-.641 1.296 1.296 0 0 0-.642-1.72zM103.46 82.438l-3.294-1.504a1.296 1.296 0 0 0-1.719.641 1.296 1.296 0 0 0 .642 1.72l3.293 1.503a1.3 1.3 0 0 0 1.719-.642 1.296 1.296 0 0 0-.641-1.719zM88.8 54.25l.07-.028 1.419-.647a1.297 1.297 0 1 0-1.078-2.36l-1.418.646c-.068.03-.127.07-.187.109C83.25 44.578 75.376 39.498 66.3 39.05v-.763c0-.626-.444-1.148-1.034-1.27a1.298 1.298 0 0 0 1.034-1.27v-2.543c0-.626-.441-1.148-1.031-1.27a1.296 1.296 0 0 0 1.031-1.27v-2.543c0-.625-.444-1.148-1.034-1.27a1.298 1.298 0 0 0 1.034-1.27v-.8l9.877-5.586c.016-.008.026-.02.04-.029.038-.023.075-.052.11-.078.035-.026.066-.049.094-.078.032-.028.058-.06.086-.09a.953.953 0 0 0 .146-.203c.02-.036.041-.073.06-.11a1.59 1.59 0 0 0 .08-.236.88.88 0 0 0 .02-.119.823.823 0 0 0 .014-.138c0-.015.005-.03.005-.046V7.257c0-.016-.005-.032-.005-.047 0-.026 0-.052-.003-.076-.003-.028-.008-.054-.013-.083a1.314 1.314 0 0 0-.018-.098l-.016-.068a.941.941 0 0 0-.028-.078c-.013-.03-.024-.062-.04-.093-.01-.024-.02-.047-.033-.068-.005-.01-.008-.02-.013-.028-.008-.016-.018-.026-.029-.04a1.353 1.353 0 0 0-.052-.077c-.015-.024-.033-.044-.052-.068l-.054-.062a.636.636 0 0 0-.06-.06l-.062-.054c-.02-.019-.044-.034-.068-.052a1.26 1.26 0 0 0-.078-.05c-.013-.007-.026-.02-.038-.028L65.639.169a1.302 1.302 0 0 0-1.278 0L53.824 6.127c-.015.008-.026.018-.039.028-.026.016-.052.034-.078.052-.023.016-.044.034-.065.05-.02.018-.041.036-.062.057a.648.648 0 0 0-.06.06l-.054.062c-.018.02-.034.044-.052.067l-.052.078c-.008.013-.02.026-.029.04-.005.01-.008.02-.013.028a.85.85 0 0 0-.033.067l-.04.094c-.01.026-.02.052-.028.078-.008.02-.01.044-.016.067a1.11 1.11 0 0 0-.018.099c-.005.029-.01.055-.013.083 0 .026 0 .052-.002.075 0 .016-.006.032-.006.047v10.802c0 .015.006.031.006.047 0 .046.008.09.013.137a.88.88 0 0 0 .057.24c.013.038.028.08.044.116.018.04.039.073.06.11.02.036.041.07.065.103.026.034.052.068.08.099.029.03.055.062.086.09.028.03.062.053.093.079.037.028.073.054.112.078.013.007.026.02.039.028l9.877 5.587v.8c0 .626.444 1.148 1.034 1.27a1.298 1.298 0 0 0-1.034 1.27v2.542c0 .626.442 1.148 1.031 1.27a1.296 1.296 0 0 0-1.03 1.27v2.543c0 .626.443 1.148 1.033 1.27a1.298 1.298 0 0 0-1.034 1.27v.764c-9.075.444-16.95 5.524-21.305 12.918a1.203 1.203 0 0 0-.187-.109l-1.418-.647a1.296 1.296 0 0 0-1.72.642 1.296 1.296 0 0 0 .642 1.72l1.419.646.07.028a26.04 26.04 0 0 0-2.416 10.986c0 3.922.8 7.35 2.236 10.592l-1.309.597a1.297 1.297 0 1 0 1.078 2.361l1.4-.639c4.309 7.584 12.293 12.82 21.51 13.272v.29c0 .627.444 1.149 1.034 1.27a1.298 1.298 0 0 0-1.034 1.27v2.543c0 .626.442 1.148 1.031 1.27a1.296 1.296 0 0 0-1.03 1.27v2.543c0 .626.443 1.148 1.033 1.27a1.298 1.298 0 0 0-1.034 1.27v.8l-9.877 5.587c-.016.008-.026.018-.039.028a1.76 1.76 0 0 0-.078.052c-.023.016-.044.034-.065.05l-.062.054a.605.605 0 0 0-.06.06l-.054.062c-.019.021-.034.044-.052.068l-.052.078c-.008.013-.021.026-.029.039-.005.01-.008.02-.013.028a.826.826 0 0 0-.034.068l-.039.093a.942.942 0 0 0-.028.078c-.008.021-.01.044-.016.068-.008.031-.013.065-.018.098-.005.029-.01.055-.013.083 0 .026 0 .052-.003.076 0 .015-.005.031-.005.047v10.801c0 .016.005.031.005.047 0 .047.008.091.014.138a.89.89 0 0 0 .02.119c.01.042.024.081.037.12.013.039.028.08.044.116.018.039.039.073.06.11.02.036.041.07.065.103.025.034.051.068.08.099.029.031.054.062.086.091.028.029.062.052.093.078.037.028.073.054.112.078.013.008.026.021.039.028l10.537 5.958c.033.021.072.037.106.052l.037.019c.067.028.137.049.21.064.018.006.036.008.054.011.076.013.154.023.232.023.078 0 .155-.01.23-.023l.055-.011c.07-.015.143-.036.21-.064a.317.317 0 0 0 .037-.019.723.723 0 0 0 .106-.052l10.537-5.958c.016-.007.026-.02.04-.028.038-.024.075-.052.11-.078.035-.026.066-.049.094-.078.032-.029.057-.06.086-.091a.905.905 0 0 0 .146-.202c.02-.037.041-.073.06-.11.018-.039.03-.077.043-.116a.89.89 0 0 0 .057-.239.826.826 0 0 0 .014-.138c0-.016.005-.031.005-.047v-10.801c0-.016-.005-.032-.005-.047 0-.026 0-.052-.003-.076-.003-.028-.008-.054-.013-.083a1.296 1.296 0 0 0-.018-.098l-.016-.068c-.008-.026-.018-.052-.028-.078-.013-.031-.024-.062-.04-.093a.826.826 0 0 0-.033-.068c-.005-.01-.008-.021-.013-.028-.008-.016-.018-.026-.029-.039-.015-.026-.033-.052-.052-.078-.015-.024-.033-.044-.051-.068l-.055-.062a.605.605 0 0 0-.06-.06l-.062-.054c-.02-.019-.044-.034-.068-.052-.026-.019-.052-.034-.078-.05-.013-.008-.025-.02-.038-.028l-9.878-5.587v-.8c0-.626-.444-1.148-1.033-1.27a1.298 1.298 0 0 0 1.033-1.27v-2.543c0-.625-.441-1.147-1.03-1.27a1.296 1.296 0 0 0 1.03-1.27v-2.542c0-.626-.444-1.148-1.033-1.27a1.298 1.298 0 0 0 1.033-1.27v-.291c9.22-.452 17.202-5.688 21.51-13.272l1.4.64a1.296 1.296 0 1 0 1.078-2.36l-1.309-.6a26.074 26.074 0 0 0 2.236-10.59c0-3.769-.867-7.644-2.415-10.987l.02.008zm-.215 9.688H78.83c-.099-4.036-.66-7.805-1.587-11.132 2.304-1.09 3.922-2.501 4.6-4.111 3.906 3.976 6.417 9.321 6.74 15.243h.002zM63.704 52.57c-2.818-.075-5.48-.468-7.76-1.135 1.82-5.197 4.615-8.851 7.76-9.651V52.57zM66.3 41.784c3.112.792 5.883 4.376 7.703 9.49-2.236.717-4.882 1.156-7.703 1.278V41.784zm5.916.96a23.523 23.523 0 0 1 7.413 3.961 1.304 1.304 0 0 0-.029.268c0 1.114-1.166 2.324-3.155 3.322-1.104-3.062-2.546-5.636-4.228-7.55zm-18.743 7.787c-2.182-.987-3.517-2.228-3.642-3.384a23.633 23.633 0 0 1 7.956-4.402c-1.728 1.96-3.2 4.62-4.314 7.786zm10.23 4.639v8.768h-9.932c.099-3.587.598-6.99 1.405-10.007 2.452.722 5.35 1.16 8.527 1.239zm0 11.365v9.028c-3.15.099-6.023.556-8.444 1.29-.854-3.093-1.386-6.607-1.488-10.316h9.932v-.002zm0 22.154c-3.083-.784-5.83-4.311-7.651-9.347 2.241-.678 4.864-1.086 7.65-1.182v10.529zM66.3 78.16c2.787.096 5.413.504 7.651 1.182-1.823 5.036-4.568 8.563-7.65 9.347V78.16zm-8.514 9.565a23.599 23.599 0 0 1-7.661-4.16c.125-1.122 1.39-2.325 3.467-3.299 1.099 3.02 2.527 5.566 4.197 7.46h-.002zm18.625-7.459c2.075.972 3.343 2.177 3.467 3.299a23.598 23.598 0 0 1-7.662 4.16c1.668-1.893 3.096-4.438 4.198-7.459h-.003zm-10.11-4.706v-9.028h9.93c-.1 3.71-.63 7.223-1.487 10.316-2.421-.735-5.29-1.19-8.444-1.29v.002zm0-11.625v-8.789c3.18-.122 6.066-.61 8.482-1.382.83 3.06 1.347 6.52 1.449 10.171H66.3zM55.763 9.482l7.94 4.49v7.818l-7.94-4.49V9.482zM74.238 17.3l-7.94 4.49v-7.817l7.94-4.49V17.3zM65 2.79l7.898 4.467L65 11.724l-7.898-4.467L65 2.789zM47.767 49.1c.826 1.556 2.551 2.909 4.925 3.94-.888 3.267-1.423 6.955-1.522 10.898h-9.755c.312-5.722 2.67-10.906 6.352-14.838zm-6.352 17.435h9.755c.101 4.078.67 7.885 1.615 11.235-2.29 1.029-3.95 2.359-4.745 3.888-3.838-3.963-6.303-9.261-6.623-15.12l-.002-.003zm14.347 47.632 7.94 4.491v7.818l-7.94-4.491v-7.818zm10.537 4.491 7.94-4.491v7.818l-7.94 4.491v-7.818zm-1.3-2.249-7.897-4.467L65 107.475l7.898 4.467L65 116.409zm16.96-34.75c-.794-1.528-2.456-2.86-4.745-3.889.943-3.35 1.515-7.157 1.616-11.235h9.755a23.53 23.53 0 0 1-6.623 15.12l-.002.003z"/>
        </g>
    </mask>
    <g mask="url(#pik0r0jo1b)">
        <path fill="url(#xbcaluzbnc)" d="M0 0h130v130H0z"/>
    </g>
    <defs>
        <linearGradient id="xbcaluzbnc" x1="65" y1="-5.5" x2="65" y2="130" gradientUnits="userSpaceOnUse">
            <stop stop-color="#4DA2FE"/>
            <stop offset="1" stop-color="#005FC5"/>
        </linearGradient>
        <clipPath id="51orzshqma">
            <path fill="#fff" d="M0 0h130v130H0z"/>
        </clipPath>
    </defs>
</svg>
