<svg width="130" height="130" viewBox="0 0 130 130" fill="none" xmlns="http://www.w3.org/2000/svg">
    <mask id="fyq8drftfb" style="mask-type:alpha" maskUnits="userSpaceOnUse" x="0" y="0" width="130" height="130">
        <g clip-path="url(#a4ci37bgqa)" fill="#000">
            <path d="M24.54 20.71a1.316 1.316 0 0 0-1.85 0l-9.37 9.303-2.622-2.602a1.316 1.316 0 0 0-1.85 0c-.51.506-.51 1.33 0 1.836l3.548 3.52a1.319 1.319 0 0 0 1.852 0l10.295-10.22c.51-.507.51-1.33 0-1.837h-.002zM22.69 108.423l-9.37 9.303-2.622-2.603a1.317 1.317 0 0 0-1.85 0c-.51.507-.51 1.33 0 1.837l3.548 3.521a1.32 1.32 0 0 0 1.852 0l10.295-10.22c.51-.506.51-1.329 0-1.836a1.317 1.317 0 0 0-1.85 0l-.002-.002zM112.259 20.71a1.315 1.315 0 0 0-1.849 0l-9.372 9.303-2.621-2.602a1.316 1.316 0 0 0-1.85 0c-.51.506-.51 1.33 0 1.836l3.548 3.52c.256.254.591.378.926.378.335 0 .67-.127.926-.379l10.295-10.22c.51-.506.51-1.33 0-1.836h-.003z"/>
            <path d="M110.012 87.757V41.664h9.521c.086 0 .172-.008.256-.026.039-.008.076-.023.112-.033.045-.013.089-.024.131-.04.045-.018.087-.044.128-.067.032-.018.066-.031.097-.052.073-.047.139-.101.202-.163l8.845-8.782c.246-.244.382-.574.382-.919V1.299c0-.013-.003-.026-.005-.04 0-.059-.008-.119-.018-.178a1.353 1.353 0 0 0-.076-.278l-.019-.04a1.218 1.218 0 0 0-.089-.163c-.013-.02-.028-.039-.041-.06a1.02 1.02 0 0 0-.105-.124l-.047-.05a1.278 1.278 0 0 0-.16-.13l-.016-.013a1.385 1.385 0 0 0-.423-.181l-.071-.016a1.388 1.388 0 0 0-.235-.023H97.875c-.347 0-.68.137-.926.379l-8.845 8.781c-.06.06-.115.127-.165.2-.02.031-.034.062-.052.093-.024.042-.05.084-.068.13a.748.748 0 0 0-.04.13c-.01.04-.026.073-.034.114a1.377 1.377 0 0 0-.026.255v10.246H41.97V1.299a.2.2 0 0 0-.005-.04c0-.059-.008-.119-.018-.178a1.248 1.248 0 0 0-.076-.278c-.005-.013-.013-.026-.018-.04a1.24 1.24 0 0 0-.09-.163c-.012-.02-.028-.039-.041-.06a.943.943 0 0 0-.105-.124l-.047-.05a1.281 1.281 0 0 0-.16-.13c-.005-.005-.01-.007-.015-.013a1.427 1.427 0 0 0-.264-.132 1.13 1.13 0 0 0-.16-.05L40.9.027a1.392 1.392 0 0 0-.236-.023H10.156c-.348 0-.68.137-.926.379L.385 9.163c-.06.06-.116.127-.165.2-.021.031-.034.062-.053.093-.023.042-.05.084-.068.13a.743.743 0 0 0-.039.13c-.01.04-.026.073-.034.114a1.377 1.377 0 0 0-.026.255v30.283c0 .717.586 1.299 1.308 1.299h18.369v46.05h-9.52c-.349 0-.681.138-.927.38L.385 96.876c-.06.06-.116.127-.165.2-.021.03-.034.062-.053.093-.023.041-.05.083-.068.13a.744.744 0 0 0-.039.13c-.01.039-.026.072-.034.114a1.377 1.377 0 0 0-.026.254v30.284c0 .717.586 1.298 1.308 1.298h30.505c.087 0 .173-.007.257-.026.039-.007.075-.023.112-.033.045-.013.09-.024.13-.039.045-.019.087-.044.13-.068.03-.018.065-.031.096-.052a1.23 1.23 0 0 0 .201-.163l8.846-8.782c.246-.244.382-.574.382-.919v-8.656h45.517c.916 10.827 10.078 19.362 21.217 19.362 11.745 0 21.299-9.485 21.299-21.144 0-11.659-8.853-20.427-19.991-21.1l.003-.002zM90.335 11.38h27.889v27.686H90.335V11.381zm30.506 25.85V10.62l6.229-6.186v26.61l-6.229 6.187zM98.414 2.597h26.806l-6.229 6.187H92.185l6.232-6.187h-.003zM36.237 22.925h3.116v8.12l-6.229 6.186V10.62l6.23-6.186v15.894h-3.117c-.722 0-1.308.582-1.308 1.299s.586 1.299 1.308 1.299zM10.697 2.598h26.807l-6.23 6.187H4.466l6.232-6.187zm-8.08 8.784h27.888v27.686H2.616V11.381zm8.08 78.931h8.98v2.904c0 .717.586 1.299 1.308 1.299.722 0 1.308-.582 1.308-1.299v-2.904h15.21L31.275 96.5H4.466l6.232-6.187zm-8.08 8.784h27.888v27.686H2.616V99.096zm36.736 19.666-6.229 6.187V98.338l6.23-6.187v15.895h-3.117c-.722 0-1.308.582-1.308 1.299 0 .716.586 1.298 1.308 1.298h3.116v8.119zm2.611-29.785c0-.06-.008-.12-.018-.179-.003-.02-.005-.044-.01-.065a1.247 1.247 0 0 0-.066-.213l-.018-.039a1.24 1.24 0 0 0-.09-.163c-.012-.021-.028-.04-.041-.06a.942.942 0 0 0-.105-.125c-.016-.015-.031-.033-.047-.05a1.28 1.28 0 0 0-.16-.129l-.015-.013a1.437 1.437 0 0 0-.264-.132 1.142 1.142 0 0 0-.16-.05l-.07-.015a1.39 1.39 0 0 0-.236-.024H22.295V41.67h9.52c.087 0 .173-.008.257-.026.04-.008.076-.024.113-.034.044-.013.089-.024.13-.04.045-.017.087-.043.129-.067.031-.018.065-.03.097-.052.073-.046.138-.101.201-.163l8.845-8.781c.246-.245.382-.574.382-.92v-8.656h45.75v17.44c0 .717.586 1.298 1.308 1.298h18.369v46.093c-10.865.657-19.554 9.436-19.97 20.284H41.97v-19.03a.2.2 0 0 0-.005-.039zm55.577 34.748c.099-.182.16-.387.16-.607 0-6.023 4.933-10.922 11-10.922s11.002 4.899 11.002 10.922c0 .22.06.425.159.607a18.673 18.673 0 0 1-11.161 3.683c-4.18 0-8.045-1.371-11.16-3.683zm11.16-14.606c-2.443 0-4.432-1.974-4.432-4.4s1.989-4.4 4.432-4.4c2.444 0 4.432 1.974 4.432 4.4s-1.988 4.4-4.432 4.4zm13.534 12.508c-.591-5.317-4.298-9.714-9.267-11.345 1.688-1.28 2.781-3.296 2.781-5.563 0-3.857-3.16-6.997-7.048-6.997-3.887 0-7.048 3.138-7.048 6.997a6.967 6.967 0 0 0 2.781 5.563c-4.965 1.631-8.675 6.028-9.266 11.345-3.187-3.327-5.15-7.823-5.15-12.765 0-10.228 8.38-18.547 18.683-18.547 10.303 0 18.683 8.319 18.683 18.547 0 4.942-1.962 9.438-5.149 12.765z"/>
        </g>
    </mask>
    <g mask="url(#fyq8drftfb)">
        <path fill="url(#bl6kvweh6c)" d="M0 0h130v130H0z"/>
    </g>
    <defs>
        <linearGradient id="bl6kvweh6c" x1="65" y1="-5.5" x2="65" y2="130" gradientUnits="userSpaceOnUse">
            <stop stop-color="#4DA2FE"/>
            <stop offset="1" stop-color="#005FC5"/>
        </linearGradient>
        <clipPath id="a4ci37bgqa">
            <path fill="#fff" d="M0 0h130v130H0z"/>
        </clipPath>
    </defs>
</svg>
