<svg width="70" height="70" viewBox="0 0 70 70" fill="none" xmlns="http://www.w3.org/2000/svg">
    <g clip-path="url(#ci51tor8ka)">
        <path d="M34.064 19.953H26.53c-4.735 0-5.726.5-5.731-5.117V6.368c0-1.96.015-3.79 2.518-3.975 1.602-.14 3.268 0 4.88 0h15.838c2.924 0 5.246-.394 5.301 3.372.04 2.663 0 5.336 0 8v2.154c.01.578.066 1.216-.05 1.785-.56 2.803-3.944 2.25-6.011 2.254H36.08c-.145.873 0 2.075 0 2.998 2.068.319 3.504 2.11 4.14 3.985h19.117c3.143 0 3.384-.54 3.384 3.022v11.705h2.868c2.713 0 4.325.05 4.365 3.192.01.972.11 5.241-.08 5.955-.536 2.025-2.343 1.83-3.915 1.83h-3.233c-.07 1.366 0 2.773 0 4.15h3.248c4.516-.03 3.965 1.41 3.98 5.425.01 2.235.59 5.327-2.663 5.412-2.493.065-5 .015-7.499.015h-2.598c-4.35-.035-3.549-2.15-3.549-5.855 0-3.955-.295-4.998 4.085-4.998h2.953v-4.149h-2.913c-5.16.005-4.12-2.23-4.125-6.359 0-3.905-.04-4.613 4.2-4.613h2.838V28.955H40.226c-.56 2.245-1.847 3.556-4.14 4.19v8.533h3.184c2.688 0 4.07.08 4.08 3.192v3.62c.01 3.945-.531 4.165-4.085 4.165H36.08v4.24h3.199c3.68 0 4.08.278 4.075 3.9v4.124c.245 3.177-2.763 2.733-4.916 2.733H30.7c-4.965-.005-3.97-2-3.97-5.965 0-4.359-.034-4.883 4.215-4.883h3.114v-4.15c-1.592-.049-5.431.385-6.512-.633-1.277-1.196-.826-4.154-.821-5.84.005-3.86-.01-4.498 4.154-4.498h3.179v-5.855c0-.873.075-1.81 0-2.673-1.972-.514-3.7-2.13-3.99-4.19H9.321v12.718h3.128c2.018 0 4.11-.045 4.16 2.598.025 1.287 0 2.579 0 3.86 0 3.945-.105 4.524-3.92 4.514H9.327v4.02h3.108c1.752-.005 4.03-.06 4.16 2.304.07 1.217.155 5.93-.07 6.917-.496 2.185-3.169 1.76-4.836 1.76H3.684c-1.081 0-2.062.12-2.913-.688-1.076-1.022-.69-4.159-.7-5.61-.026-4-.03-4.688 4.304-4.688h2.933v-4.02c-1.491 0-2.983-.01-4.475.04-3.514.12-2.768-4.214-2.768-6.548 0-3.816.005-4.474 4.05-4.464h3.193V29.763c0-3.376.506-2.813 3.474-2.808h19.292c.591-1.97 1.913-3.47 3.99-3.984V19.953zM23.787 4.348c-1.566.045-1.006 1.591-.986 3.172h7.123c.996 0 2.543-.09 3.46.035.94.13 1.911 1.985-1.122 1.965h-9.46v3.187h24.527V7.854c0-4.02.386-3.51-3.384-3.51H23.787v.004zm-.86 10.369-.086.055c-.09.518-.12 2.518.13 2.897.39.594 2.173.294 2.779.294h15.327c.951 0 5.341.22 5.947-.16.62-.717.3-2.204.3-3.091H22.921l.005.005zm11.818 10.189c-4.24.823-3.284 6.658.84 6.284 4.34-.973 3.06-6.633-.84-6.284zM2.107 43.673c-.145.369-.26 6.832.296 6.947.27.055 11.858.06 12.034.02.27-.349.255-5.89.14-6.683-.08-.578-4.28-.28-5.126-.28-2.448 0-4.896-.04-7.344 0v-.004zm27.076 0c-.145.015-.345.015-.46.1-.15 1.236-.105 5.695.07 6.702l.035-.01-.01.085c.666.28 3.434.085 4.3.085h7.834c.806-.18.415-6.683.32-6.862-.11-.2-3.77-.105-4.295-.105h-7.789l-.005.005zm26.861 0c-.145.035-.225.04-.34.14-.135.583-.135 6.338 0 6.742.625.27 3.309.08 4.135.08h7.753c.736-.26.256-6.803.186-6.882-.626-.13-1.287-.085-1.918-.085h-2.453c-2.447 0-4.915-.05-7.363 0v.005zM2.533 58.655c-.14.015-.29.015-.406.104-.05.205-.065 6.444-.02 6.848.616.065 1.247 0 1.863 0h8.049c.71 0 1.457.06 2.157 0 .125-.015.23-.015.326-.11.155-.499.135-5.361.08-6.11-.09-1.206-1.357-.737-2.533-.732H4.315c-.59 0-1.196-.03-1.787 0h.005zm53.511.19c-.405.064-.405.219-.42.608-.07 1.71-.11 4.458.01 6.154 1.336.03 2.678 0 4.02 0h7.943c.34-.135.31-.4.32-.733.06-1.641.076-3.855.02-5.506-.03-.933-1.841-.524-2.692-.524H57.39c-.436-.005-.921-.055-1.347 0zm-26.57 0h-.771c-.02.902-.1 6.129.135 6.657.466.29 3.564.1 4.275.1h7.534c.45-.015.67.05.705-.459.04-.678.126-5.78-.09-6.184-.62-.235-10.507-.115-11.788-.115z" fill="#fff" stroke="#fff" stroke-width=".5"/>
    </g>
    <defs>
        <clipPath id="ci51tor8ka">
            <path fill="#fff" d="M0 0h70v70H0z"/>
        </clipPath>
    </defs>
</svg>
