<svg width="70" height="70" viewBox="0 0 70 70" fill="none" xmlns="http://www.w3.org/2000/svg">
    <g clip-path="url(#n2vtb1dgda)">
        <path d="M66.428 51.144h-13.19a2.82 2.82 0 0 0-2.812 2.819v5.515h-6.892V56.56a3.437 3.437 0 0 0-3.43-3.435H13.255a3.437 3.437 0 0 0-3.43 3.435v2.918H6.025a3.089 3.089 0 0 1-3.082-3.088V45.37c0-3.24 2.63-5.876 5.863-5.876h9.053l-1.215 5.001a1.092 1.092 0 0 0 1.06 1.352h30.985a1.09 1.09 0 0 0 1.06-.834l1.342-5.52h9.585c4.436 0 8.046-3.617 8.046-8.063V18.032c0-2.91-2.361-5.276-5.264-5.276H62.6V9.838a3.436 3.436 0 0 0-3.43-3.435H35.807a3.435 3.435 0 0 0-3.428 3.435v2.918h-3.982v-.63c0-.538-.39-.996-.918-1.08l-3.026-.486a10.237 10.237 0 0 0-.572-1.38l1.797-2.489a1.095 1.095 0 0 0-.112-1.415l-2.432-2.44a1.09 1.09 0 0 0-1.412-.111l-2.483 1.802a10.279 10.279 0 0 0-1.378-.573L17.377.92A1.093 1.093 0 0 0 16.299 0h-3.44c-.537 0-.994.391-1.078.921l-.485 3.033a10.37 10.37 0 0 0-1.379.573L7.436 2.725a1.092 1.092 0 0 0-1.412.112L3.59 5.276c-.378.38-.426.979-.112 1.415l1.798 2.487c-.224.447-.415.908-.571 1.382l-3.026.486c-.53.084-.92.542-.92 1.08v3.448c0 .537.39.995.92 1.08l3.026.485c.156.473.347.935.571 1.38l-1.798 2.49a1.098 1.098 0 0 0 .112 1.414l2.434 2.438c.379.38.978.428 1.412.112l2.483-1.8c.444.224.905.415 1.377.572l.485 3.033c.084.53.541.92 1.077.92h3.44c.537 0 .994-.39 1.079-.92l.484-3.033c.472-.157.933-.348 1.378-.573l2.483 1.801a1.089 1.089 0 0 0 1.412-.112l2.432-2.438c.38-.38.427-.98.112-1.415L23.88 18.52c.224-.447.415-.908.572-1.38l3.026-.486c.529-.085.918-.543.918-1.08v-.63h3.982v2.917a3.436 3.436 0 0 0 3.428 3.436H59.17c1.891 0 3.43-1.543 3.43-3.436v-2.918h.857a3.089 3.089 0 0 1 3.081 3.089V31.43c0 3.24-2.63 5.876-5.863 5.876h-9.053l1.216-5a1.093 1.093 0 0 0-1.06-1.354H20.793a1.09 1.09 0 0 0-1.06.836l-1.343 5.518H8.805C4.37 37.306.76 40.924.76 45.37v11.02c0 2.909 2.362 5.276 5.265 5.276h3.802v2.917a3.436 3.436 0 0 0 3.43 3.436h26.848c1.891 0 3.43-1.54 3.43-3.436v-2.917h6.892v5.515A2.82 2.82 0 0 0 53.239 70h13.189a2.82 2.82 0 0 0 2.813-2.82V53.964a2.82 2.82 0 0 0-2.813-2.82zM26.214 14.64l-2.786.447c-.43.069-.777.387-.885.808a8.213 8.213 0 0 1-.888 2.148c-.223.375-.2.846.054 1.2l1.655 2.292-1.116 1.118-2.288-1.658a1.088 1.088 0 0 0-1.196-.055c-.67.398-1.39.698-2.143.89-.42.108-.738.457-.806.888l-.447 2.791h-1.58l-.445-2.791a1.093 1.093 0 0 0-.808-.888 8.187 8.187 0 0 1-2.143-.89 1.088 1.088 0 0 0-1.197.055L6.91 22.654l-1.117-1.118 1.656-2.293c.255-.353.277-.824.055-1.199a8.188 8.188 0 0 1-.889-2.148 1.092 1.092 0 0 0-.885-.808l-2.787-.447v-1.583l2.787-.447c.43-.07.778-.387.885-.81a8.208 8.208 0 0 1 .889-2.147c.222-.375.2-.847-.055-1.2l-1.656-2.29 1.117-1.12 2.286 1.66a1.09 1.09 0 0 0 1.197.054 8.175 8.175 0 0 1 2.143-.891 1.09 1.09 0 0 0 .808-.886l.446-2.793h1.58l.446 2.793c.068.43.386.779.807.886a8.14 8.14 0 0 1 2.142.891c.375.223.845.201 1.196-.055l2.288-1.66 1.116 1.12-1.655 2.292a1.094 1.094 0 0 0-.054 1.199c.397.671.695 1.394.888 2.148.108.422.456.74.885.809l2.786.447v1.583zm34.203 3.22a1.25 1.25 0 0 1-1.247 1.248H35.807a1.25 1.25 0 0 1-1.245-1.248V9.838c0-.689.559-1.248 1.245-1.248H59.17c.688 0 1.247.56 1.247 1.248v8.023zM21.65 33.14h28.739L47.83 43.66H19.093l2.556-10.52zm19.702 31.442c0 .69-.56 1.248-1.247 1.248H13.255c-.687 0-1.247-.559-1.247-1.248V56.56c0-.687.56-1.248 1.247-1.248h26.85c.687 0 1.246.56 1.246 1.248v8.023zm25.707 2.598a.638.638 0 0 1-.63.632h-13.19a.64.64 0 0 1-.63-.632V53.963a.64.64 0 0 1 .63-.632h13.19c.342 0 .63.29.63.632V67.18zm-2.867-8.477-4.126 5.112c-.195.24-.481.387-.791.403-.02.002-.038.002-.057.002-.29 0-.566-.114-.773-.32l-2.89-2.897a1.098 1.098 0 0 1 0-1.548 1.09 1.09 0 0 1 1.543 0l2.034 2.039 3.362-4.166a1.089 1.089 0 0 1 1.535-.163c.47.38.542 1.07.163 1.538zM34.02 38.4c0-.604.489-1.094 1.092-1.094H45.4a1.093 1.093 0 0 1 0 2.188H35.113c-.603 0-1.092-.49-1.092-1.094zm-11.032 0c0-.604.49-1.094 1.091-1.094h6.858c.603 0 1.091.49 1.091 1.094 0 .605-.488 1.094-1.09 1.094H24.08c-.601 0-1.091-.49-1.091-1.094zM38.43 60.572c0 .604-.488 1.094-1.091 1.094h-6.858c-.603 0-1.091-.49-1.091-1.094 0-.604.488-1.094 1.091-1.094h6.858c.603 0 1.091.49 1.091 1.094zm-11.032 0c0 .604-.488 1.094-1.091 1.094H16.02c-.603 0-1.092-.49-1.092-1.094 0-.604.489-1.094 1.092-1.094h10.286c.603 0 1.091.49 1.091 1.094zm20.85-46.722c0 .604-.488 1.093-1.09 1.093h-9.15c-.602 0-1.09-.49-1.09-1.093 0-.605.488-1.094 1.09-1.094h9.15c.602 0 1.09.49 1.09 1.094zm9.812 0c0 .604-.489 1.093-1.092 1.093H50.87c-.602 0-1.09-.49-1.09-1.093 0-.605.487-1.094 1.09-1.094h6.099c.602 0 1.09.49 1.09 1.094zM14.579 7.66c-3.405 0-6.176 2.777-6.176 6.19 0 3.412 2.77 6.188 6.176 6.188 3.405 0 6.174-2.776 6.174-6.188 0-3.413-2.77-6.19-6.174-6.19zm0 10.19a4.002 4.002 0 0 1 0-8.002 4 4 0 0 1 3.991 4.002 4 4 0 0 1-3.991 4z" fill="#fff"/>
    </g>
    <defs>
        <clipPath id="n2vtb1dgda">
            <path fill="#fff" d="M0 0h70v70H0z"/>
        </clipPath>
    </defs>
</svg>
