<svg width="70" height="70" viewBox="0 0 70 70" fill="none" xmlns="http://www.w3.org/2000/svg">
    <path d="M35 67.083c9.665 0 17.5-7.835 17.5-17.5s-7.835-17.5-17.5-17.5-17.5 7.835-17.5 17.5 7.835 17.5 17.5 17.5zM17.5 13.125v7.292l5.833-2.917M11.667 17.5l5.833 2.917M21.875 24.792 17.5 20.417l-4.375 4.375M35 13.125v7.292l5.833-2.917M29.167 17.5 35 20.417M39.375 24.792 35 20.417l-4.375 4.375M52.5 13.125v7.292l5.833-2.917M46.667 17.5l5.833 2.917M56.875 24.792 52.5 20.417l-4.375 4.375" stroke="#fff" stroke-width="2.3" stroke-linejoin="round"/>
    <path d="M16.042 37.917H4.375A2.925 2.925 0 0 1 1.458 35V7.292a2.925 2.925 0 0 1 2.917-2.917h61.25a2.925 2.925 0 0 1 2.917 2.917V35a2.925 2.925 0 0 1-2.917 2.917H53.958M26.25 51.042l5.92 5.833 11.58-14.583" stroke="#fff" stroke-width="2.3" stroke-linejoin="round"/>
</svg>
