<svg width="1170" height="803" viewBox="0 0 1170 803" fill="none" xmlns="http://www.w3.org/2000/svg">
    <rect width="1170" height="803" rx="30" fill="#F7F8FC"/>
    <g filter="url(#fi28eh0xea)">
        <rect x="407" y="703" width="371" height="50" rx="25" fill="#fff"/>
        <path d="m572.232 729.5-3.093-3.093.884-.884L574 729.5l-3.977 3.978-.884-.884 3.093-3.094zM649.232 729.5l-3.093-3.093.884-.884L651 729.5l-3.977 3.978-.884-.884 3.093-3.094z" fill="#757575"/>
        <path d="M489.682 730.605c3.445.018 5.625 1.108 5.642 2.989-.017 1.845-2.197 2.953-5.642 2.953-3.428 0-5.625-1.108-5.625-2.953 0-1.881 2.197-2.971 5.625-2.989zm0 1.477c-2.286 0-3.674.545-3.657 1.512-.017.931 1.371 1.441 3.657 1.441 2.302 0 3.691-.51 3.709-1.441-.018-.967-1.407-1.512-3.709-1.512zm5.537-10.652v1.318c0 1.248 0 2.584-.44 4.219l-1.933-.176c.395-1.547.422-2.663.422-3.814h-9.053v-1.547h11.004zm1.758 6.451v1.582h-14.415v-1.582h5.59v-2.883h1.934v2.883h6.891zm9.562-6.188c0 .58-.053 1.125-.141 1.653h3.041v-2.655h1.952v9.44h-1.952v-1.846h-3.814v-1.582h3.814v-1.793h-3.533c-1.072 2.47-3.454 4.219-6.873 5.133l-.738-1.564c3.665-.967 5.818-2.857 6.152-5.186h-5.291v-1.6h7.383zm4.852 9.106v5.713h-1.952v-4.166h-8.877v-1.547h10.829zm12.533-6.311c-.018 2.918 1.512 5.836 4.096 6.944l-1.161 1.564c-1.828-.844-3.172-2.531-3.902-4.605-.729 2.241-2.092 4.069-4.025 4.974l-1.196-1.635c2.655-1.142 4.202-4.183 4.202-7.242v-2.531h1.986v2.531zm7.207-3.814v15.908h-1.969v-15.908h1.969zm15.24 7.224v1.547h-4.711v3.639h6.328v1.6h-14.519v-1.6h6.258v-3.639h-4.5v-7.593h11.021v1.564h-9.07v4.482h9.193zM602.982 721.693c0 .58-.052 1.125-.14 1.653h3.041v-2.655h1.951v9.44h-1.951v-1.846h-3.815v-1.582h3.815v-1.793h-3.533c-1.073 2.47-3.454 4.219-6.873 5.133l-.739-1.564c3.665-.967 5.819-2.857 6.153-5.186H595.6v-1.6h7.382zm4.852 9.106v5.713h-1.951v-4.166h-8.877v-1.547h10.828zm15.486-10.125v15.908h-1.933v-15.908h1.933zm-4.886 1.388v5.959h-5.467v3.2c2.505-.018 4.667-.141 7.137-.563l.175 1.6c-2.707.474-5.08.562-7.927.562h-1.389v-6.345h5.484v-2.83h-5.502v-1.583h7.489z" fill="#424242"/>
        <path d="M684.922 720.621v15.996h-2.268v-15.996h2.268zm-3.99 1.477v1.793h-1.424v6.943a38.82 38.82 0 0 0 2.074-.193l.106 1.67c-3.411.562-7.102.615-10.038.632l-.211-1.828 1.846-.017v-7.207h-1.406v-1.793h9.053zm-5.467 8.947 1.863-.07v-7.084h-1.863v7.154zm19.283-7.981v1.776h-7.734v-1.776h2.777v-2.003h2.215v2.003h2.742zm-3.832 2.497c2.039 0 3.498 1.582 3.516 3.796-.018 2.233-1.477 3.815-3.516 3.815-2.039 0-3.533-1.582-3.533-3.815 0-2.214 1.494-3.796 3.533-3.796zm0 1.863c-.932 0-1.564.721-1.564 1.933 0 1.213.632 1.916 1.564 1.916.896 0 1.529-.703 1.547-1.916-.018-1.212-.651-1.933-1.547-1.933zm9.949-6.803v15.996h-2.127v-7.699h-1.3v7.014h-2.092v-14.994h2.092v6.187h1.3v-6.504h2.127zm9.721 9.352v1.599h1.723v-1.599h2.074v4.851c1.775-.791 2.531-2.285 2.531-3.744v-1.23h2.25v1.23c-.018 1.635.774 3.182 2.777 3.832l-1.16 1.67c-1.38-.475-2.267-1.389-2.777-2.531-.536 1.107-1.415 2.03-2.707 2.531l-.914-1.389v1.248h-5.871v-6.468h2.074zm0 4.763h1.723v-1.511h-1.723v1.511zm.615-13.517c2.039 0 3.665 1.134 4.113 2.83h2.672v-3.428h2.233v8.473h-2.233v-3.199h-2.672c-.43 1.731-2.065 2.882-4.113 2.882-2.461 0-4.271-1.564-4.254-3.797-.017-2.197 1.793-3.761 4.254-3.761zm0 1.845c-1.248 0-2.144.739-2.127 1.916-.017 1.213.879 1.952 2.127 1.969 1.213-.017 2.092-.756 2.092-1.969 0-1.177-.879-1.916-2.092-1.916zm18.387-2.144c3.551 0 5.801 1.178 5.818 3.129-.017 1.933-2.267 3.111-5.818 3.094-3.533.017-5.836-1.161-5.836-3.094 0-1.951 2.303-3.129 5.836-3.129zm0 1.74c-2.233 0-3.516.475-3.498 1.389-.018.896 1.265 1.353 3.498 1.353 2.215 0 3.498-.457 3.498-1.353 0-.914-1.283-1.389-3.498-1.389zm5.555 8.332v5.449H723.98v-5.449h11.163zm-8.948 1.776v1.88h6.75v-1.88h-6.75zm10.688-4.694v1.793h-14.59v-1.793h14.59z" fill="#FF6200"/>
        <circle cx="432" cy="728" r="23.5" fill="#4DA2FE" stroke="url(#i3u9m8m2mb)" stroke-width="3"/>
        <path d="m429.666 732.699 10.725-10.724 1.65 1.65-12.375 12.374-7.424-7.424 1.65-1.65 5.774 5.774z" fill="#fff"/>
    </g>
    <path d="M555.773 382.023v3.985h2.403V388h-2.403v4.141h-2.5v-10.118h2.5zm0 10.86v6.719h-11.621v-6.719h11.621zm-9.16 1.972v2.754h6.699v-2.754h-6.699zm.059-11.855c2.754-.02 4.844 1.777 4.844 4.297 0 2.519-2.09 4.297-4.844 4.297-2.774 0-4.883-1.778-4.883-4.297 0-2.52 2.109-4.317 4.883-4.297zm0 2.09c-1.406-.02-2.442.84-2.422 2.207-.02 1.387 1.016 2.207 2.422 2.207 1.367 0 2.402-.82 2.422-2.207-.02-1.367-1.055-2.227-2.422-2.207zm27.773-.82v1.992H559.66v-1.992h6.152v-2.071h2.461v2.071h6.172zm.782 11.718v1.992h-16.27v-1.992h6.855v-2.05c-3.027-.254-4.863-1.504-4.843-3.458-.02-2.148 2.324-3.457 6.074-3.437 3.691-.02 6.055 1.289 6.055 3.437 0 1.954-1.846 3.204-4.825 3.458v2.05h6.954zm-8.184-7.011c-2.305 0-3.535.488-3.516 1.503-.019 1.055 1.211 1.524 3.516 1.524 2.246 0 3.496-.469 3.496-1.524 0-1.015-1.25-1.503-3.496-1.503zm23.418-6.954v7.227h2.324v2.07h-2.324v8.477h-2.52v-17.774h2.52zm-14.434 12.754c1.299 0 2.813 0 4.395-.039v-1.523c-1.895-.371-3.125-1.572-3.106-3.223-.019-1.992 1.778-3.34 4.375-3.34 2.539 0 4.356 1.348 4.375 3.34-.019 1.651-1.269 2.862-3.144 3.223v1.426a46.687 46.687 0 0 0 4.14-.371l.157 1.816c-3.789.703-7.852.723-10.86.723l-.332-2.032zm10.899-10.781v1.953h-10.547v-1.953h4.043v-1.875h2.5v1.875h4.004zm-5.235 4.551c-1.211 0-2.031.527-2.011 1.445-.02.938.8 1.446 2.011 1.446 1.172 0 1.973-.508 1.973-1.446 0-.918-.801-1.445-1.973-1.445zm20.039-4.688V398h-2.929v-14.141h2.929zM604.113 398v-14.141h5.547c3.223 0 5.059 1.973 5.059 4.766 0 2.832-1.875 4.766-5.137 4.766h-2.539V398h-2.93zm2.93-6.973h2.07c1.739 0 2.578-.976 2.578-2.402 0-1.406-.839-2.363-2.578-2.363h-2.07v4.765zm18.984-2.246c-.234-1.562-1.445-2.519-3.086-2.519-2.207 0-3.652 1.699-3.652 4.668 0 3.047 1.465 4.668 3.633 4.668 1.621 0 2.812-.899 3.105-2.422l2.969.019c-.332 2.617-2.519 5-6.113 5-3.789 0-6.582-2.656-6.582-7.265 0-4.61 2.851-7.266 6.582-7.266 3.262 0 5.722 1.875 6.113 5.117h-2.969z" fill="#212121"/>
    <g filter="url(#140n2s5azc)">
        <rect x="50" y="56" width="380" height="210" rx="15" fill="url(#bvzbcv422d)"/>
        <rect x="50.5" y="56.5" width="379" height="209" rx="14.5" stroke="#E0E0E0"/>
    </g>
    <path d="M290.22 180.744v15.75h-1.6v-8.174h-1.951v7.418h-1.565v-14.572h1.565v5.801h1.951v-6.223h1.6zm-6.68 2.004c-.018 4.148-1.389 7.857-5.889 10.406l-.966-1.16c3.498-1.977 4.974-4.658 5.238-7.875h-4.57v-1.371h6.187zm21.814-1.986v11.443h-1.669v-11.443h1.669zm.475 14.045v1.353h-10.775v-5.115h1.687v3.762h9.088zm-9.017-12.991c2.373 0 4.183 1.618 4.183 3.903 0 2.32-1.81 3.92-4.183 3.92-2.374 0-4.202-1.6-4.202-3.92 0-2.285 1.828-3.903 4.202-3.903zm0 1.459c-1.477 0-2.567 1.002-2.567 2.444 0 1.476 1.09 2.461 2.567 2.461 1.441 0 2.548-.985 2.548-2.461 0-1.442-1.107-2.444-2.548-2.444zm19.529-.931c0 4.64-1.547 8.824-7.33 11.636l-.897-1.3c2.822-1.371 4.579-3.068 5.573-5.08l-5.256.492-.229-1.459 6.012-.387c.246-.8.404-1.652.474-2.549h-5.695v-1.353h7.348zm4.605-1.6v15.75h-1.687v-15.75h1.687zm19.969 0v8.578h-1.652v-3.48h-2.953v-1.371h2.953v-3.727h1.652zm-8.596 9.281v1.811h6.944v-1.811h1.652v6.276h-10.248v-6.276h1.652zm0 4.922h6.944v-1.81h-6.944v1.81zm1.125-11.742c0 1.951 1.424 3.92 3.797 4.729l-.861 1.3c-1.776-.624-3.076-1.88-3.762-3.445-.694 1.749-2.065 3.138-3.937 3.797l-.862-1.318c2.426-.844 3.92-2.918 3.92-5.08v-.211h-3.41v-1.354h8.49v1.354h-3.375v.228zm22.5-1.529v1.248c0 1.336 0 2.9-.386 4.974h2.214v1.372h-14.414v-1.372h10.512c.413-2.047.422-3.542.422-4.869h-9.123v-1.353h10.775zm.475 13.113v1.371h-11.18v-5.256h1.653v3.885h9.527zm12.674-10.037c-.018 2.883 1.722 5.766 4.166 6.855l-1.002 1.319c-1.811-.862-3.243-2.628-3.973-4.781-.738 2.302-2.188 4.209-4.078 5.132l-1.019-1.406c2.478-1.107 4.218-4.113 4.218-7.119v-2.69h1.688v2.69zm7.26-4.008v15.785h-1.67v-15.785h1.67zm15.275 7.26v1.336h-4.764v3.849h6.416v1.372h-14.414v-1.372h6.346v-3.849h-4.553v-7.383h10.828v1.354h-9.158v4.693h9.299z" fill="#616161"/>
    <path d="M50 71c0-8.284 6.716-15 15-15h350c8.284 0 15 6.716 15 15v39H50V71z" fill="#4DA2FE"/>
    <circle cx="145" cy="165" r="25" fill="#EEE"/>
    <path d="m146.716 154.947 3.735 1.434-.717 1.867-.934-.359-.746 1.945a6.042 6.042 0 0 1 1.945 1.846l1.902-.847-.406-.914 1.827-.813 1.627 3.654-1.827.813-.407-.913-1.902.847a6.023 6.023 0 0 1 .069 2.68l1.944.746.359-.933 1.867.716-1.433 3.735-1.867-.717.357-.933-1.944-.747a6.031 6.031 0 0 1-1.846 1.945l.848 1.903.914-.407.813 1.827-3.654 1.627-.813-1.827.913-.407-.847-1.902a6.029 6.029 0 0 1-2.681.069l-.746 1.945.934.358-.717 1.867-3.734-1.433.717-1.867.932.358.748-1.944a6.035 6.035 0 0 1-1.945-1.847l-1.903.848.407.914-1.827.813-1.627-3.654 1.827-.813.406.914 1.903-.848a6.023 6.023 0 0 1-.07-2.68l-1.945-.746-.358.933-1.867-.717 1.434-3.734 1.867.717-.359.933 1.945.747a6.042 6.042 0 0 1 1.846-1.945l-.848-1.903-.913.407-.814-1.827 3.655-1.627.813 1.827-.914.407.848 1.902a6.017 6.017 0 0 1 2.679-.07l.746-1.945-.932-.357.716-1.868zM145 161a4 4 0 1 0 0 8 4 4 0 0 0 0-8zm-.5 4.866a1 1 0 1 1-1.001 1.732 1 1 0 0 1 1.001-1.732zM147 164a1 1 0 1 1 0 2 1 1 0 0 1 0-2zm-2.134-1.232a1 1 0 1 1-1.733 1 1 1 0 0 1 1.733-1z" fill="#000"/>
    <path d="M96.004 209c3.305-.023 5.812 2.18 5.812 5.18 0 3.07-2.507 5.226-5.812 5.226-3.328 0-5.86-2.156-5.86-5.226 0-3 2.532-5.203 5.86-5.18zm0 2.555c-1.688 0-2.93.961-2.906 2.625-.024 1.711 1.218 2.695 2.906 2.695 1.64 0 2.883-.984 2.906-2.695-.023-1.664-1.266-2.625-2.906-2.625zm10.922-3.727v5.016h2.883v2.437h-2.883v5.016h-3v-12.469h3zm0 13.36v7.992h-3v-5.578H92.559v-2.414h14.367zm11.883-10.454c-.024 2.86 1.453 5.485 4.875 6.539l-1.571 2.344c-2.297-.797-3.855-2.273-4.734-4.195-.961 2.226-2.684 3.984-5.25 4.851l-1.57-2.39c3.656-1.172 5.203-4.031 5.226-7.008v-1.945h3.024v1.804zm9.914-2.906v12.492h-2.977v-6.14h-4.008v-2.438h4.008v-3.914h2.977zm-7.289 13.055c4.546 0 7.336 1.523 7.359 4.148-.023 2.625-2.813 4.125-7.359 4.125-4.547 0-7.336-1.5-7.336-4.125s2.789-4.148 7.336-4.148zm0 2.32c-2.836 0-4.36.609-4.36 1.828 0 1.172 1.524 1.805 4.36 1.805 2.836 0 4.382-.633 4.382-1.805 0-1.219-1.546-1.828-4.382-1.828zm35.109 1.008v2.461H137.02v-2.461h8.226v-4.359h-6.164v-10.454h15.281v10.454h-6.14v4.359h8.32zm-14.508-12.422v5.719h9.375v-5.719h-9.375zm32.906.891v2.367h-14.742v-6.586h14.578v2.414h-11.601v1.805h11.765zm2.274 3.515v2.344h-4.735v1.477h2.368v5.437h-11.883v1.266h12.445v2.273h-15.375v-5.625h11.86v-1.148h-11.883v-2.203h2.695v-1.477h-4.945v-2.344h19.453zm-11.531 3.821h3.796v-1.477h-3.796v1.477zM187.668 227h-3.797l5.883-16.969h4.523l5.86 16.969h-3.774l-1.265-3.914h-6.141L187.668 227zm2.18-6.656h4.359l-2.133-6.492h-.117l-2.109 6.492z" fill="#212121"/>
    <path d="M201.227 89V77.687h4.25c2.593 0 3.984 1.579 3.984 3.75 0 2.172-1.406 3.735-4.016 3.735h-2.187V89h-2.031zm2.031-5.5h1.906c1.531 0 2.219-.86 2.219-2.063 0-1.218-.688-2.046-2.219-2.046h-1.906V83.5zm7.75 5.5v-8.484h1.937v1.406h.094c.297-.969 1.125-1.531 2.094-1.531.219 0 .531.015.719.046v1.844c-.172-.062-.594-.125-.922-.125-1.11 0-1.922.766-1.922 1.844v5h-2zm9.453.172c-2.469 0-4.063-1.75-4.063-4.375 0-2.64 1.594-4.39 4.063-4.39 2.484 0 4.062 1.75 4.062 4.39 0 2.625-1.578 4.375-4.062 4.375zm.016-1.594c1.359 0 2.031-1.234 2.031-2.797 0-1.547-.672-2.797-2.031-2.797-1.391 0-2.063 1.25-2.063 2.797 0 1.563.672 2.797 2.063 2.797zm9.296 1.594c-2.531 0-4.062-1.813-4.062-4.375 0-2.594 1.578-4.39 4.062-4.39 2.063 0 3.5 1.202 3.641 3.03h-1.906c-.156-.812-.75-1.437-1.719-1.437-1.234 0-2.062 1.047-2.062 2.75 0 1.75.812 2.797 2.062 2.797.891 0 1.547-.516 1.719-1.438h1.906c-.156 1.797-1.516 3.063-3.641 3.063zm8.907 0c-2.563 0-4.125-1.703-4.125-4.36 0-2.624 1.593-4.406 4.015-4.406 2.078 0 3.875 1.297 3.875 4.281v.626h-5.922c.024 1.445.875 2.296 2.172 2.296.875 0 1.469-.375 1.719-.875h1.953c-.359 1.47-1.719 2.438-3.687 2.438zm-2.141-5.219h4c-.016-1.156-.781-2-1.937-2-1.204 0-2 .914-2.063 2zm12.266-1.016c-.125-.64-.657-1.046-1.5-1.046-.86 0-1.485.421-1.469 1-.016.437.344.765 1.203.968l1.438.297c1.609.36 2.375 1.094 2.39 2.313-.015 1.594-1.406 2.703-3.625 2.703-2.156 0-3.437-.969-3.64-2.594h2.031c.125.719.687 1.078 1.609 1.078.953 0 1.594-.39 1.594-1.015 0-.485-.391-.797-1.234-.985l-1.36-.297c-1.578-.312-2.39-1.14-2.39-2.359 0-1.563 1.343-2.594 3.421-2.594 2.032 0 3.282.985 3.422 2.531h-1.89zm8.39 0c-.125-.64-.656-1.046-1.5-1.046-.859 0-1.484.421-1.468 1-.016.437.343.765 1.203.968l1.437.297c1.61.36 2.375 1.094 2.391 2.313-.016 1.594-1.406 2.703-3.625 2.703-2.156 0-3.438-.969-3.641-2.594h2.031c.125.719.688 1.078 1.61 1.078.953 0 1.594-.39 1.594-1.015 0-.485-.391-.797-1.235-.985l-1.359-.297c-1.578-.312-2.391-1.14-2.391-2.359 0-1.563 1.344-2.594 3.422-2.594 2.031 0 3.281.985 3.422 2.531h-1.891zM268.836 89l.484-2.922h-2.437L266.398 89h-1.546l.484-2.922h-1.594l.25-1.531h1.594l.391-2.406h-1.579l.25-1.532h1.594l.469-2.921h1.547l-.469 2.921h2.438l.468-2.921h1.532l-.469 2.921h1.594l-.266 1.532h-1.594l-.39 2.406h1.593l-.25 1.531h-1.593L270.367 89h-1.531zm-1.703-4.453h2.437l.391-2.406h-2.438l-.39 2.406zm11.875-6.86V89h-2.047v-9.328h-.063l-2.64 1.687V79.5l2.797-1.813h1.953z" fill="#fff"/>
    <g filter="url(#2fp48pmpje)">
        <rect x="230" y="476" width="710" height="187" rx="15" fill="url(#kdw8it0m1f)"/>
        <rect x="230.5" y="476.5" width="709" height="186" rx="14.5" stroke="#E0E0E0"/>
    </g>
    <path d="M370.137 629.586v-16.857h4.113v1.476h-2.32v13.887h2.32v1.494h-4.113zm18.246-17.842v8.578h-1.653v-3.48h-2.953v-1.371h2.953v-3.727h1.653zm-8.596 9.281v1.811h6.943v-1.811h1.653v6.276h-10.248v-6.276h1.652zm0 4.922h6.943v-1.81h-6.943v1.81zm1.125-11.742c0 1.951 1.424 3.92 3.797 4.729l-.861 1.3c-1.776-.624-3.077-1.88-3.762-3.445-.694 1.749-2.065 3.138-3.938 3.797l-.861-1.318c2.426-.844 3.92-2.918 3.92-5.08v-.211h-3.41v-1.354h8.49v1.354h-3.375v.228zm22.5-1.529v1.248c0 1.336 0 2.9-.387 4.974h2.215v1.372h-14.414v-1.372h10.512c.413-2.047.422-3.542.422-4.869h-9.123v-1.353h10.775zm.475 13.113v1.371h-11.18v-5.256h1.652v3.885h9.528zm19.16-14.045v6.276h2.443v1.388h-2.443v8.069h-1.67v-15.733h1.67zm-4.113 1.652c-.018 4.553-2.022 8.614-7.207 11.18l-.932-1.301c3.946-1.968 6.091-4.816 6.434-8.49h-5.643v-1.389h7.348zm20.127 2.602v1.354H428.25v-5.327h1.652v3.973h9.159zm1.652 3.023v1.372h-14.379v-1.372h14.379zm-7.207 2.655c3.392 0 5.432 1.037 5.432 2.865 0 1.846-2.04 2.883-5.432 2.883-3.41 0-5.467-1.037-5.467-2.883 0-1.828 2.057-2.865 5.467-2.865zm0 1.301c-2.408.017-3.779.544-3.779 1.564 0 1.002 1.371 1.6 3.779 1.6 2.373 0 3.762-.598 3.762-1.6 0-1.02-1.389-1.547-3.762-1.564zm12.357 6.609h-4.113v-1.494h2.32v-13.887h-2.32v-1.476h4.113v16.857zM724.137 629.586v-16.857h4.113v1.476h-2.32v13.887h2.32v1.494h-4.113zm18.246-17.842v8.578h-1.653v-3.48h-2.953v-1.371h2.953v-3.727h1.653zm-8.596 9.281v1.811h6.943v-1.811h1.653v6.276h-10.248v-6.276h1.652zm0 4.922h6.943v-1.81h-6.943v1.81zm1.125-11.742c0 1.951 1.424 3.92 3.797 4.729l-.861 1.3c-1.776-.624-3.077-1.88-3.762-3.445-.694 1.749-2.065 3.138-3.938 3.797l-.861-1.318c2.426-.844 3.92-2.918 3.92-5.08v-.211h-3.41v-1.354h8.49v1.354h-3.375v.228zm22.5-1.529v1.248c0 1.336 0 2.9-.387 4.974h2.215v1.372h-14.414v-1.372h10.512c.413-2.047.422-3.542.422-4.869h-9.123v-1.353h10.775zm.475 13.113v1.371h-11.18v-5.256h1.652v3.885h9.528zm12.287-8.982c0 2.425 1.476 4.992 3.832 6.117l-.949 1.265c-1.714-.808-3.006-2.452-3.674-4.377-.695 2.084-2.066 3.824-3.867 4.659l-.932-1.283c2.391-1.09 3.955-3.78 3.955-6.381v-1.037h-3.48v-1.336h3.462v-2.373h1.688v2.373h3.428v1.336h-3.463v1.037zm6.873-5.063v6.346h2.531v1.406h-2.531v7.998h-1.67v-15.75h1.67zm15.662-.017v4.57h2.303v1.389h-2.303v5.449h-1.67v-11.408h1.67zm-4.641 1.353v1.354h-5.379v4.587c3.068.009 4.799-.087 6.768-.492l.193 1.354c-2.127.422-3.99.527-7.365.527h-1.248v-7.33h7.031zm5.309 12.727v1.353h-10.652v-5.203h1.67v3.85h8.982zm6.486 3.779h-4.113v-1.494h2.32v-13.887h-2.32v-1.476h4.113v16.857z" fill="#616161"/>
    <path stroke="#E0E0E0" d="M585.5 545v103"/>
    <path d="m319.734 569.234-5.484 20.321h-2.977l5.461-20.321h3zM321.305 587v-12.727h3.304v2.227h.141c.539-1.477 1.828-2.391 3.539-2.391 1.758 0 3.047.914 3.469 2.391h.117c.539-1.453 1.969-2.391 3.844-2.391 2.367 0 4.008 1.571 4.008 4.336V587h-3.469v-7.875c0-1.453-.844-2.156-1.992-2.156-1.313 0-2.063.914-2.063 2.25V587h-3.375v-7.969c0-1.265-.797-2.062-1.969-2.062-1.171 0-2.086.937-2.086 2.39V587h-3.468zm26.812.258c-3.844 0-6.234-2.649-6.234-6.586 0-3.938 2.39-6.563 6.234-6.563s6.258 2.625 6.258 6.563c0 3.937-2.414 6.586-6.258 6.586zm.024-2.696c1.781 0 2.695-1.664 2.695-3.89 0-2.25-.914-3.914-2.695-3.914-1.805 0-2.743 1.664-2.743 3.914 0 2.226.938 3.89 2.743 3.89zm13.101 2.649c-2.906 0-5.18-2.32-5.18-6.563 0-4.359 2.368-6.539 5.18-6.539 2.133 0 3.141 1.266 3.61 2.297h.117v-6.375h3.469V587h-3.422v-2.039h-.164c-.493 1.055-1.547 2.25-3.61 2.25zm1.078-2.766c1.735 0 2.719-1.523 2.719-3.82 0-2.297-.984-3.75-2.719-3.75-1.758 0-2.695 1.523-2.695 3.75 0 2.25.937 3.82 2.695 3.82zm17.063-2.859v-7.313h3.469V587h-3.329v-2.297h-.14c-.586 1.477-1.945 2.461-3.867 2.461-2.555 0-4.289-1.805-4.289-4.781v-8.11h3.468v7.5c0 1.5.867 2.461 2.227 2.461 1.266 0 2.461-.914 2.461-2.648zm9.633-11.555V587h-3.469v-16.969h3.469zm8.461 17.227c-3.891 0-6.282-2.531-6.282-6.563 0-3.937 2.414-6.586 6.141-6.586 3.352 0 5.976 2.11 5.976 6.446v.984h-8.695c0 1.922 1.149 3.117 2.93 3.117 1.172 0 2.015-.515 2.367-1.289h3.305c-.492 2.344-2.602 3.891-5.742 3.891zm-2.86-7.899h5.414c0-1.547-1.078-2.648-2.625-2.648-1.594 0-2.73 1.184-2.789 2.648zM415.172 587v2.648h-11.133V587h11.133zm4.172 0h-3.797l5.883-16.969h4.523L431.812 587h-3.773l-1.266-3.914h-6.14L419.344 587zm2.179-6.656h4.36l-2.133-6.492h-.117l-2.11 6.492zM441 569.234l-5.484 20.321h-2.977L438 569.234h3zM442.641 587v-16.969h3.515v7.524h.235l6.164-7.524h4.242l-6.328 7.594 6.398 9.375h-4.219l-4.71-7.008-1.782 2.156V587h-3.515zm20.671.258c-3.89 0-6.281-2.531-6.281-6.563 0-3.937 2.414-6.586 6.141-6.586 3.351 0 5.976 2.11 5.976 6.446v.984h-8.695c0 1.922 1.149 3.117 2.93 3.117 1.172 0 2.015-.515 2.367-1.289h3.305c-.493 2.344-2.602 3.891-5.743 3.891zm-2.859-7.899h5.414c0-1.547-1.078-2.648-2.625-2.648-1.594 0-2.73 1.184-2.789 2.648zm12.563 12.422c-.68 0-1.313-.023-1.758-.07v-2.695a28.7 28.7 0 0 0 1.406.046c.68 0 1.242-.07 1.664-1.171l.211-.539-4.57-13.079h3.633l2.671 9.375h.141l2.695-9.375h3.68l-4.969 14.133c-.726 2.039-2.109 3.375-4.804 3.375zm18.726-13.734c-.14-.891-.937-1.477-2.086-1.477-1.125 0-1.992.539-1.968 1.313-.024.562.445 1.008 1.64 1.265l2.274.469c2.46.516 3.656 1.617 3.679 3.445-.023 2.508-2.273 4.196-5.648 4.196-3.445 0-5.461-1.547-5.742-4.031h3.492c.164 1.007.984 1.523 2.25 1.523 1.265 0 2.109-.516 2.109-1.336 0-.656-.539-1.055-1.734-1.312l-2.11-.422c-2.414-.469-3.679-1.735-3.656-3.61-.023-2.437 2.086-3.961 5.367-3.961 3.211 0 5.203 1.524 5.391 3.938h-3.258zm13.008-8.813-5.484 20.321h-2.977l5.461-20.321h3zM674.707 569.234l-5.484 20.321h-2.977l5.461-20.321h3zm1.57 17.766v-12.727h3.305v2.227h.141c.539-1.477 1.828-2.391 3.539-2.391 1.758 0 3.047.914 3.468 2.391h.118c.539-1.453 1.968-2.391 3.843-2.391 2.368 0 4.008 1.571 4.008 4.336V587h-3.469v-7.875c0-1.453-.843-2.156-1.992-2.156-1.312 0-2.062.914-2.062 2.25V587h-3.375v-7.969c0-1.265-.797-2.062-1.969-2.062-1.172 0-2.086.937-2.086 2.39V587h-3.469zm26.813.258c-3.844 0-6.235-2.649-6.235-6.586 0-3.938 2.391-6.563 6.235-6.563 3.844 0 6.258 2.625 6.258 6.563 0 3.937-2.414 6.586-6.258 6.586zm.023-2.696c1.782 0 2.696-1.664 2.696-3.89 0-2.25-.914-3.914-2.696-3.914-1.804 0-2.742 1.664-2.742 3.914 0 2.226.938 3.89 2.742 3.89zm13.102 2.649c-2.906 0-5.18-2.32-5.18-6.563 0-4.359 2.367-6.539 5.18-6.539 2.133 0 3.14 1.266 3.609 2.297h.117v-6.375h3.469V587h-3.422v-2.039h-.164c-.492 1.055-1.547 2.25-3.609 2.25zm1.078-2.766c1.734 0 2.719-1.523 2.719-3.82 0-2.297-.985-3.75-2.719-3.75-1.758 0-2.695 1.523-2.695 3.75 0 2.25.937 3.82 2.695 3.82zm17.062-2.859v-7.313h3.469V587h-3.328v-2.297h-.141c-.585 1.477-1.945 2.461-3.867 2.461-2.554 0-4.289-1.805-4.289-4.781v-8.11h3.469v7.5c0 1.5.867 2.461 2.227 2.461 1.265 0 2.46-.914 2.46-2.648zm9.633-11.555V587h-3.468v-16.969h3.468zm8.461 17.227c-3.89 0-6.281-2.531-6.281-6.563 0-3.937 2.414-6.586 6.141-6.586 3.351 0 5.976 2.11 5.976 6.446v.984h-8.695c0 1.922 1.148 3.117 2.93 3.117 1.171 0 2.015-.515 2.367-1.289h3.304c-.492 2.344-2.601 3.891-5.742 3.891zm-2.859-7.899h5.414c0-1.547-1.078-2.648-2.625-2.648-1.594 0-2.731 1.184-2.789 2.648zM770.145 587v2.648h-11.133V587h11.133zm1.335 0v-16.969h6.75c3.75 0 5.625 1.805 5.625 4.36 0 1.992-1.289 3.234-3.046 3.632v.165c1.921.093 3.726 1.617 3.726 4.124 0 2.696-2.015 4.688-5.859 4.688h-7.196zm6.493-2.906c2.039 0 2.906-.844 2.906-2.11 0-1.429-1.078-2.437-2.813-2.437h-3.07v4.547h2.977zm-.258-6.961c1.476 0 2.578-.821 2.578-2.18 0-1.219-.891-2.062-2.508-2.062h-2.789v4.242h2.719zm16.312-7.899-5.484 20.321h-2.977l5.461-20.321h3zM795.668 587v-16.969h3.516v7.524h.234l6.164-7.524h4.242l-6.328 7.594 6.399 9.375h-4.219l-4.711-7.008-1.781 2.156V587h-3.516zm20.672.258c-3.891 0-6.281-2.531-6.281-6.563 0-3.937 2.414-6.586 6.14-6.586 3.352 0 5.977 2.11 5.977 6.446v.984h-8.696c0 1.922 1.149 3.117 2.93 3.117 1.172 0 2.016-.515 2.367-1.289h3.305c-.492 2.344-2.602 3.891-5.742 3.891zm-2.86-7.899h5.415c0-1.547-1.079-2.648-2.625-2.648-1.594 0-2.731 1.184-2.79 2.648zm12.563 12.422c-.68 0-1.313-.023-1.758-.07v-2.695a28.7 28.7 0 0 0 1.406.046c.68 0 1.243-.07 1.664-1.171l.211-.539-4.57-13.079h3.633l2.672 9.375h.14l2.696-9.375h3.679l-4.968 14.133c-.727 2.039-2.11 3.375-4.805 3.375zm18.727-13.734c-.141-.891-.938-1.477-2.086-1.477-1.125 0-1.993.539-1.969 1.313-.024.562.445 1.008 1.64 1.265l2.274.469c2.461.516 3.656 1.617 3.68 3.445-.024 2.508-2.274 4.196-5.649 4.196-3.445 0-5.461-1.547-5.742-4.031h3.492c.164 1.007.985 1.523 2.25 1.523 1.266 0 2.11-.516 2.11-1.336 0-.656-.54-1.055-1.735-1.312l-2.109-.422c-2.414-.469-3.68-1.735-3.656-3.61-.024-2.437 2.085-3.961 5.367-3.961 3.211 0 5.203 1.524 5.39 3.938h-3.257zm13.007-8.813-5.484 20.321h-2.977l5.461-20.321h3z" fill="#212121"/>
    <path d="M230 491c0-8.284 6.716-15 15-15h680c8.284 0 15 6.716 15 15v39H230v-39z" fill="#4DA2FE"/>
    <path d="M541.836 497.641v1.421h-1.359v6.36c.64-.055 1.273-.11 1.875-.188l.078 1.25c-2.922.5-6.188.563-8.641.563l-.203-1.422 1.703-.016v-6.547h-1.344v-1.421h7.891zm3-1.375v5.468h2.172v1.422h-2.172v7.235h-1.734v-14.125h1.734zm-7.859 9.312a49.686 49.686 0 0 0 1.828-.062v-6.454h-1.828v6.516zm14.625-8.859c2.14 0 3.734 1.328 3.75 3.187-.016 1.875-1.61 3.188-3.75 3.188-2.157 0-3.75-1.313-3.75-3.188 0-1.859 1.593-3.187 3.75-3.187zm0 1.437c-1.188 0-2.063.672-2.063 1.75 0 1.094.875 1.782 2.063 1.782 1.187 0 2.062-.688 2.062-1.782 0-1.078-.875-1.75-2.062-1.75zm7.765-1.89v7.14h-1.75v-7.14h1.75zm0 7.75v3.687h-7.64v1.141h8.062v1.375h-9.766v-3.797h7.61v-1.047h-7.641v-1.359h9.375zm11.203-4.36c-.015 2.594 1.344 5.188 3.641 6.172l-1.031 1.391c-1.625-.75-2.821-2.25-3.469-4.094-.649 1.992-1.859 3.617-3.578 4.422l-1.063-1.453c2.36-1.016 3.735-3.719 3.735-6.438v-2.25h1.765v2.25zm6.407-3.39v14.14h-1.75v-14.14h1.75zm9.375 1.937c0 2.188 2.14 4.375 5.093 4.891l-.781 1.453c-2.367-.5-4.305-1.93-5.219-3.828-.937 1.883-2.875 3.32-5.234 3.828l-.766-1.453c2.922-.532 5.047-2.719 5.063-4.891v-1.047h1.844v1.047zm5.609 8.953v1.438h-12.906v-1.438h12.906zm6.891-10.015v1.406h-3.704v1.328h3.172v1.344h-3.172v1.453c1.696-.016 2.86-.078 4.235-.328l.187 1.359c-1.625.297-2.968.359-5.156.359h-.937v-6.921h5.375zm6.109-.875v8.453h-1.656v-8.453h1.656zm-2.781.234v8.109h-1.657v-3.484h-1.593v-1.406h1.593V496.5h1.657zm2.781 8.812v4.907h-9.531v-4.907h9.531zm-7.797 1.376v2.124h6.078v-2.124h-6.078zm20.859-9.516c0 .516-.046 1-.125 1.469h2.704v-2.36h1.734v8.391h-1.734v-1.641h-3.391v-1.406h3.391v-1.594h-3.141c-.953 2.196-3.07 3.75-6.109 4.563l-.657-1.391c3.258-.859 5.172-2.539 5.469-4.609h-4.703v-1.422h6.562zm4.313 8.094v5.078h-1.734v-3.703h-7.891v-1.375h9.625zm13.766-9v14.14h-1.719v-14.14h1.719zm-4.344 1.234v5.297h-4.86v2.844c2.227-.016 4.149-.125 6.344-.5l.156 1.421c-2.406.422-4.515.5-7.046.5h-1.235v-5.64h4.875v-2.516h-4.89V497.5h6.656z" fill="#fff"/>
    <g filter="url(#8af1yao3vg)">
        <rect x="740" y="56" width="380" height="210" rx="15" fill="url(#4l4k2ts1bh)"/>
        <rect x="740.5" y="56.5" width="379" height="209" rx="14.5" stroke="#E0E0E0"/>
    </g>
    <path d="M980.22 173.744v15.75h-1.6v-8.174h-1.951v7.418h-1.565v-14.572h1.565v5.801h1.951v-6.223h1.6zm-6.68 2.004c-.018 4.148-1.389 7.857-5.889 10.406l-.966-1.16c3.498-1.977 4.974-4.658 5.238-7.875h-4.57v-1.371h6.187zm21.814-1.986v11.443h-1.669v-11.443h1.669zm.475 14.045v1.353h-10.775v-5.115h1.687v3.762h9.088zm-9.017-12.991c2.373 0 4.183 1.618 4.183 3.903 0 2.32-1.81 3.92-4.183 3.92-2.374 0-4.202-1.6-4.202-3.92 0-2.285 1.828-3.903 4.202-3.903zm0 1.459c-1.477 0-2.567 1.002-2.567 2.444 0 1.476 1.09 2.461 2.567 2.461 1.441 0 2.548-.985 2.548-2.461 0-1.442-1.107-2.444-2.548-2.444zm19.528-.931c0 4.64-1.55 8.824-7.329 11.636l-.897-1.3c2.826-1.371 4.576-3.068 5.576-5.08l-5.259.492-.229-1.459 6.008-.387c.25-.8.41-1.652.48-2.549h-5.697v-1.353h7.347zm4.61-1.6v15.75h-1.69v-15.75h1.69zm19.23-.017v4.711h2.28v1.406h-2.28v5.467h-1.67v-11.584h1.67zm.66 14.08v1.353h-10.65v-5.062h1.67v3.709h8.98zm-8.61-12.991c2.37 0 4.19 1.618 4.2 3.92-.01 2.285-1.83 3.92-4.2 3.92s-4.2-1.635-4.18-3.92c-.02-2.302 1.81-3.92 4.18-3.92zm0 1.459c-1.44 0-2.56 1.002-2.55 2.461-.01 1.459 1.11 2.461 2.55 2.461 1.46 0 2.57-1.002 2.57-2.461 0-1.459-1.11-2.461-2.57-2.461zm24.26-2.513v11.531h-1.67v-5.924h-3.01v-1.353h3.01v-4.254h1.67zm.42 14.045v1.353h-10.65v-4.904h1.67v3.551h8.98zm-7.91-10.864c0 1.969 1.42 3.938 3.8 4.729l-.86 1.336c-1.77-.624-3.08-1.89-3.77-3.446a6.55 6.55 0 0 1-3.93 3.797l-.86-1.353c2.42-.826 3.92-2.901 3.92-5.063v-.615h-3.41v-1.371h8.49v1.371H1039v.615zm28.72 9.211v1.389h-14.41v-1.389h6.35v-3.234h-4.7v-8.104h1.67v2.707h7.74v-2.707h1.65v8.104h-4.71v3.234h6.41zm-11.09-4.588h7.74v-2.689h-7.74v2.689zm21.01-6.627v.879c-.02 1.055-.02 2.62-.41 4.659l-1.65-.159c.34-1.749.4-3.014.42-4.007h-6.31v-1.372h7.95zm-4.03 3.534v3.252c1.69-.053 3.43-.176 5.01-.405l.11 1.213c-3.29.58-7.05.633-9.83.651l-.16-1.354c.97-.009 2.07-.018 3.22-.053v-3.304h1.65zm7.72-4.729v5.01h2.16v1.406h-2.16v5.414h-1.71v-11.83h1.71zm.51 14.063v1.353h-10.71v-4.658h1.67v3.305h9.04z" fill="#616161"/>
    <circle cx="835" cy="165" r="25" fill="#EEE"/>
    <path d="M842 163h1a1 1 0 0 1 1 1v10a1 1 0 0 1-1 1h-16a1 1 0 0 1-1-1v-10a1 1 0 0 1 1-1h1v-1a7 7 0 1 1 14 0v1zm-14 2v8h14v-8h-14zm6 2h2v4h-2v-4zm6-4v-1a5 5 0 0 0-10 0v1h10zM798.953 207.828v12.656h-2.976v-5.039h-3.329v-2.414h3.329v-5.203h2.976zm-7.289 13.125c4.547.024 7.336 1.524 7.359 4.125-.023 2.578-2.812 4.102-7.359 4.102-4.547 0-7.336-1.524-7.336-4.102 0-2.601 2.789-4.101 7.336-4.125zm0 2.297c-2.836 0-4.359.586-4.359 1.828 0 1.219 1.523 1.828 4.359 1.828 2.836 0 4.383-.609 4.383-1.828 0-1.242-1.547-1.828-4.383-1.828zm1.617-14.133v2.391h-4.242c.07 2.484 1.57 4.992 4.899 6.094l-1.477 2.343c-2.356-.761-3.973-2.308-4.899-4.242-.949 2.18-2.648 3.938-5.179 4.805l-1.547-2.367c3.504-1.172 5.074-3.961 5.156-6.633h-4.289v-2.391h11.578zm16.219 2.063c0 2.578 1.5 5.062 4.875 6.117l-1.594 2.32c-2.261-.75-3.843-2.203-4.758-4.078-.925 2.156-2.578 3.844-5.015 4.664l-1.617-2.344c3.562-1.195 5.086-4.031 5.109-6.961v-1.945h3v2.227zm9.141-3.352v4.992h2.882v2.485h-2.882v5.179h-3v-12.656h3zm-6.985 13.078c4.406 0 7.196 1.524 7.196 4.125 0 2.625-2.79 4.125-7.196 4.125-4.5 0-7.312-1.5-7.312-4.125 0-2.601 2.812-4.125 7.312-4.125zm0 2.344c-2.812 0-4.336.609-4.312 1.781-.024 1.219 1.5 1.781 4.312 1.781 2.766 0 4.242-.562 4.242-1.781 0-1.172-1.476-1.781-4.242-1.781zm35.86.961v2.461h-19.524v-2.461h8.227v-4.359h-6.164v-10.454h15.281v10.454h-6.141v4.359h8.321zm-14.508-12.422v5.719h9.375v-5.719h-9.375zm32.906.891v2.367h-14.742v-6.586h14.578v2.414h-11.602v1.805h11.766zm2.274 3.515v2.344h-4.735v1.477h2.367v5.437h-11.882v1.266h12.445v2.273h-15.375v-5.625h11.859v-1.148h-11.883v-2.203h2.696v-1.477h-4.946v-2.344h19.454zm-11.532 3.821h3.797v-1.477h-3.797v1.477zM875.805 227v-16.969h6.75c3.75 0 5.625 1.805 5.625 4.36 0 1.992-1.289 3.234-3.047 3.632v.165c1.922.093 3.726 1.617 3.726 4.124 0 2.696-2.015 4.688-5.859 4.688h-7.195zm6.492-2.906c2.039 0 2.906-.844 2.906-2.11 0-1.429-1.078-2.437-2.812-2.437h-3.071v4.547h2.977zm-.258-6.961c1.477 0 2.578-.821 2.578-2.18 0-1.219-.89-2.062-2.508-2.062h-2.789v4.242h2.719z" fill="#212121"/>
    <path d="M740 71c0-8.284 6.716-15 15-15h350c8.28 0 15 6.716 15 15v39H740V71z" fill="#4DA2FE"/>
    <path d="M890.078 89V77.687h4.25c2.594 0 3.984 1.579 3.984 3.75 0 2.172-1.406 3.735-4.015 3.735h-2.188V89h-2.031zm2.031-5.5h1.907c1.531 0 2.218-.86 2.218-2.063 0-1.218-.687-2.046-2.218-2.046h-1.907V83.5zm7.75 5.5v-8.484h1.938v1.406h.094c.297-.969 1.125-1.531 2.093-1.531.219 0 .532.015.719.046v1.844c-.172-.062-.594-.125-.922-.125-1.109 0-1.922.766-1.922 1.844v5h-2zm9.453.172c-2.468 0-4.062-1.75-4.062-4.375 0-2.64 1.594-4.39 4.062-4.39 2.485 0 4.063 1.75 4.063 4.39 0 2.625-1.578 4.375-4.063 4.375zm.016-1.594c1.36 0 2.031-1.234 2.031-2.797 0-1.547-.671-2.797-2.031-2.797-1.39 0-2.062 1.25-2.062 2.797 0 1.563.672 2.797 2.062 2.797zm9.297 1.594c-2.531 0-4.063-1.813-4.063-4.375 0-2.594 1.579-4.39 4.063-4.39 2.063 0 3.5 1.202 3.641 3.03h-1.907c-.156-.812-.75-1.437-1.718-1.437-1.235 0-2.063 1.047-2.063 2.75 0 1.75.813 2.797 2.063 2.797.89 0 1.547-.516 1.718-1.438h1.907c-.157 1.797-1.516 3.063-3.641 3.063zm8.906 0c-2.562 0-4.125-1.703-4.125-4.36 0-2.624 1.594-4.406 4.016-4.406 2.078 0 3.875 1.297 3.875 4.281v.626h-5.922c.023 1.445.875 2.296 2.172 2.296.875 0 1.469-.375 1.719-.875h1.953c-.36 1.47-1.719 2.438-3.688 2.438zm-2.14-5.219h4c-.016-1.156-.782-2-1.938-2-1.203 0-2 .914-2.062 2zm12.265-1.016c-.125-.64-.656-1.046-1.5-1.046-.859 0-1.484.421-1.468 1-.016.437.343.765 1.203.968l1.437.297c1.61.36 2.375 1.094 2.391 2.313-.016 1.594-1.407 2.703-3.625 2.703-2.156 0-3.438-.969-3.641-2.594h2.031c.125.719.688 1.078 1.61 1.078.953 0 1.594-.39 1.594-1.015 0-.485-.391-.797-1.235-.985l-1.359-.297c-1.578-.312-2.391-1.14-2.391-2.359 0-1.563 1.344-2.594 3.422-2.594 2.031 0 3.281.985 3.422 2.531h-1.891zm8.391 0c-.125-.64-.656-1.046-1.5-1.046-.859 0-1.485.421-1.469 1-.016.437.344.765 1.203.968l1.438.297c1.609.36 2.375 1.094 2.39 2.313-.015 1.594-1.406 2.703-3.625 2.703-2.156 0-3.437-.969-3.64-2.594h2.031c.125.719.687 1.078 1.609 1.078.954 0 1.594-.39 1.594-1.015 0-.485-.39-.797-1.234-.985l-1.36-.297c-1.578-.312-2.39-1.14-2.39-2.359 0-1.563 1.344-2.594 3.422-2.594 2.031 0 3.281.985 3.422 2.531h-1.891zM957.688 89l.484-2.922h-2.438L955.25 89h-1.547l.485-2.922h-1.594l.25-1.531h1.594l.39-2.406h-1.578l.25-1.532h1.594l.468-2.921h1.547l-.468 2.921h2.437l.469-2.921h1.531l-.469 2.921h1.594l-.265 1.532h-1.594l-.391 2.406h1.594l-.25 1.531h-1.594L959.219 89h-1.531zm-1.704-4.453h2.438l.39-2.406h-2.437l-.391 2.406zM963.266 89v-1.469l4-3.86c1.14-1.14 1.734-1.812 1.734-2.765 0-1.047-.828-1.719-1.938-1.719-1.171 0-1.921.735-1.906 1.876h-1.937c-.016-2.141 1.593-3.532 3.859-3.532 2.313 0 3.875 1.375 3.875 3.281 0 1.282-.625 2.313-2.844 4.407l-2.015 2v.078h5.031V89h-7.859z" fill="#fff"/>
    <path stroke="#E0E0E0" d="M240.5 125v126M930.5 125v126"/>
    <path stroke="#BDBDBD" stroke-width="2" d="M240 286v40"/>
    <path d="m240 271-10 15h20l-10-15zM930 271l-10 15h20l-10-15z" fill="#9E9E9E"/>
    <path d="m585 466 10-15h-20l10 15z" fill="#2E6198"/>
    <path stroke="#2E6198" stroke-width="2" d="M585 451v-40"/>
    <path stroke="#9E9E9E" stroke-width="2" d="M931 327H239M930 286v40"/>
    <path d="m735 161-15-10v20l15-10z" fill="#BDBDBD"/>
    <path stroke="#BDBDBD" stroke-width="2" stroke-dasharray="9 9" d="M430 161h140M598 161h124"/>
    <path d="m584.999 157.231 13.2-13.2 3.771 3.771-13.2 13.2 13.2 13.199-3.771 3.771-13.2-13.199-13.199 13.199-3.771-3.771 13.199-13.199-13.199-13.2 3.771-3.771 13.199 13.2z" fill="#F21515"/>
    <g filter="url(#i2kmok2fji)">
        <circle cx="585" cy="326" r="40" fill="#4DA2FE"/>
        <circle cx="585" cy="326" r="38" stroke="url(#ztxclgjmjj)" stroke-width="4"/>
    </g>
    <path d="M594 320h3a1.5 1.5 0 0 1 1.5 1.5v18a1.5 1.5 0 0 1-1.5 1.5h-24a1.5 1.5 0 0 1-1.5-1.5v-18a1.5 1.5 0 0 1 1.5-1.5h3v-1.5a9 9 0 0 1 9-9 9 9 0 0 1 9 9v1.5zm-10.5 11.599V335h3v-3.401a3 3 0 1 0-3 0zM591 320v-1.5a6 6 0 1 0-12 0v1.5h12z" fill="#fff"/>
    <defs>
        <linearGradient id="i3u9m8m2mb" x1="407" y1="703" x2="457" y2="753" gradientUnits="userSpaceOnUse">
            <stop stop-color="#fff" stop-opacity=".75"/>
            <stop offset="1" stop-color="#fff" stop-opacity=".1"/>
        </linearGradient>
        <linearGradient id="bvzbcv422d" x1="240" y1="56" x2="240" y2="266" gradientUnits="userSpaceOnUse">
            <stop stop-color="#fff"/>
            <stop offset="1" stop-color="#F9F9F9"/>
        </linearGradient>
        <linearGradient id="kdw8it0m1f" x1="585" y1="476" x2="585" y2="663" gradientUnits="userSpaceOnUse">
            <stop stop-color="#fff"/>
            <stop offset="1" stop-color="#F9F9F9"/>
        </linearGradient>
        <linearGradient id="4l4k2ts1bh" x1="930" y1="56" x2="930" y2="266" gradientUnits="userSpaceOnUse">
            <stop stop-color="#fff"/>
            <stop offset="1" stop-color="#F9F9F9"/>
        </linearGradient>
        <linearGradient id="ztxclgjmjj" x1="545" y1="286" x2="625" y2="366" gradientUnits="userSpaceOnUse">
            <stop stop-color="#fff" stop-opacity=".75"/>
            <stop offset="1" stop-color="#fff" stop-opacity=".1"/>
        </linearGradient>
        <filter id="fi28eh0xea" x="377" y="687" width="431" height="110" filterUnits="userSpaceOnUse" color-interpolation-filters="sRGB">
            <feFlood flood-opacity="0" result="BackgroundImageFix"/>
            <feColorMatrix in="SourceAlpha" values="0 0 0 0 0 0 0 0 0 0 0 0 0 0 0 0 0 0 127 0" result="hardAlpha"/>
            <feOffset dy="14"/>
            <feGaussianBlur stdDeviation="15"/>
            <feComposite in2="hardAlpha" operator="out"/>
            <feColorMatrix values="0 0 0 0 0 0 0 0 0 0 0 0 0 0 0 0 0 0 0.05 0"/>
            <feBlend in2="BackgroundImageFix" result="effect1_dropShadow_18136_2252"/>
            <feBlend in="SourceGraphic" in2="effect1_dropShadow_18136_2252" result="shape"/>
        </filter>
        <filter id="140n2s5azc" x="20" y="40" width="440" height="270" filterUnits="userSpaceOnUse" color-interpolation-filters="sRGB">
            <feFlood flood-opacity="0" result="BackgroundImageFix"/>
            <feColorMatrix in="SourceAlpha" values="0 0 0 0 0 0 0 0 0 0 0 0 0 0 0 0 0 0 127 0" result="hardAlpha"/>
            <feOffset dy="14"/>
            <feGaussianBlur stdDeviation="15"/>
            <feComposite in2="hardAlpha" operator="out"/>
            <feColorMatrix values="0 0 0 0 0 0 0 0 0 0 0 0 0 0 0 0 0 0 0.05 0"/>
            <feBlend in2="BackgroundImageFix" result="effect1_dropShadow_18136_2252"/>
            <feBlend in="SourceGraphic" in2="effect1_dropShadow_18136_2252" result="shape"/>
        </filter>
        <filter id="2fp48pmpje" x="200" y="460" width="770" height="247" filterUnits="userSpaceOnUse" color-interpolation-filters="sRGB">
            <feFlood flood-opacity="0" result="BackgroundImageFix"/>
            <feColorMatrix in="SourceAlpha" values="0 0 0 0 0 0 0 0 0 0 0 0 0 0 0 0 0 0 127 0" result="hardAlpha"/>
            <feOffset dy="14"/>
            <feGaussianBlur stdDeviation="15"/>
            <feComposite in2="hardAlpha" operator="out"/>
            <feColorMatrix values="0 0 0 0 0 0 0 0 0 0 0 0 0 0 0 0 0 0 0.05 0"/>
            <feBlend in2="BackgroundImageFix" result="effect1_dropShadow_18136_2252"/>
            <feBlend in="SourceGraphic" in2="effect1_dropShadow_18136_2252" result="shape"/>
        </filter>
        <filter id="8af1yao3vg" x="710" y="40" width="440" height="270" filterUnits="userSpaceOnUse" color-interpolation-filters="sRGB">
            <feFlood flood-opacity="0" result="BackgroundImageFix"/>
            <feColorMatrix in="SourceAlpha" values="0 0 0 0 0 0 0 0 0 0 0 0 0 0 0 0 0 0 127 0" result="hardAlpha"/>
            <feOffset dy="14"/>
            <feGaussianBlur stdDeviation="15"/>
            <feComposite in2="hardAlpha" operator="out"/>
            <feColorMatrix values="0 0 0 0 0 0 0 0 0 0 0 0 0 0 0 0 0 0 0.05 0"/>
            <feBlend in2="BackgroundImageFix" result="effect1_dropShadow_18136_2252"/>
            <feBlend in="SourceGraphic" in2="effect1_dropShadow_18136_2252" result="shape"/>
        </filter>
        <filter id="i2kmok2fji" x="515" y="260" width="140" height="140" filterUnits="userSpaceOnUse" color-interpolation-filters="sRGB">
            <feFlood flood-opacity="0" result="BackgroundImageFix"/>
            <feColorMatrix in="SourceAlpha" values="0 0 0 0 0 0 0 0 0 0 0 0 0 0 0 0 0 0 127 0" result="hardAlpha"/>
            <feOffset dy="4"/>
            <feGaussianBlur stdDeviation="15"/>
            <feComposite in2="hardAlpha" operator="out"/>
            <feColorMatrix values="0 0 0 0 0.301961 0 0 0 0 0.635294 0 0 0 0 0.996078 0 0 0 0.25 0"/>
            <feBlend in2="BackgroundImageFix" result="effect1_dropShadow_18136_2252"/>
            <feBlend in="SourceGraphic" in2="effect1_dropShadow_18136_2252" result="shape"/>
        </filter>
    </defs>
</svg>
